<svg width="200" height="69" viewBox="0 0 200 69" fill="none" xmlns="http://www.w3.org/2000/svg">
<path opacity="0.5" d="M3.504 7.4C3.504 6.888 3.58933 6.43467 3.76 6.04C3.94133 5.63467 4.18667 5.288 4.496 5C4.80533 4.712 5.16267 4.49333 5.568 4.344C5.97333 4.19467 6.40533 4.12 6.864 4.12C7.39733 4.12 7.86667 4.18933 8.272 4.328C8.67733 4.46667 9.03467 4.648 9.344 4.872C9.664 5.096 9.94667 5.34133 10.192 5.608V2.664C9.744 2.312 9.25333 2.04 8.72 1.848C8.19733 1.64533 7.52533 1.544 6.704 1.544C5.79733 1.544 4.97067 1.688 4.224 1.976C3.47733 2.25333 2.82667 2.648 2.272 3.16C1.71733 3.672 1.29067 4.29067 0.992 5.016C0.704 5.73067 0.56 6.52533 0.56 7.4C0.56 8.27467 0.704 9.07467 0.992 9.8C1.29067 10.5147 1.71733 11.128 2.272 11.64C2.82667 12.1413 3.47733 12.536 4.224 12.824C4.97067 13.1013 5.79733 13.24 6.704 13.24C7.52533 13.24 8.19733 13.1387 8.72 12.936C9.25333 12.7333 9.744 12.4667 10.192 12.136V9.192C9.94667 9.45867 9.664 9.704 9.344 9.928C9.03467 10.152 8.67733 10.3333 8.272 10.472C7.86667 10.6107 7.39733 10.68 6.864 10.68C6.40533 10.68 5.97333 10.6053 5.568 10.456C5.16267 10.3067 4.80533 10.088 4.496 9.8C4.18667 9.512 3.94133 9.17067 3.76 8.776C3.58933 8.37067 3.504 7.912 3.504 7.4ZM11.7151 9.32C11.7151 10.088 11.8965 10.76 12.2591 11.336C12.6325 11.912 13.1338 12.36 13.7631 12.68C14.4031 13 15.1231 13.16 15.9231 13.16C16.7338 13.16 17.4538 13 18.0831 12.68C18.7125 12.36 19.2085 11.912 19.5711 11.336C19.9445 10.76 20.1311 10.088 20.1311 9.32C20.1311 8.54133 19.9445 7.864 19.5711 7.288C19.2085 6.712 18.7125 6.264 18.0831 5.944C17.4538 5.624 16.7391 5.464 15.9391 5.464C15.1391 5.464 14.4191 5.624 13.7791 5.944C13.1391 6.264 12.6325 6.712 12.2591 7.288C11.8965 7.864 11.7151 8.54133 11.7151 9.32ZM14.2111 9.32C14.2111 8.936 14.2858 8.60533 14.4351 8.328C14.5951 8.05067 14.8031 7.83733 15.0591 7.688C15.3258 7.53867 15.6138 7.464 15.9231 7.464C16.2431 7.464 16.5311 7.53867 16.7871 7.688C17.0431 7.83733 17.2458 8.05067 17.3951 8.328C17.5445 8.60533 17.6191 8.936 17.6191 9.32C17.6191 9.69333 17.5445 10.0187 17.3951 10.296C17.2458 10.5733 17.0431 10.7867 16.7871 10.936C16.5311 11.0853 16.2431 11.16 15.9231 11.16C15.6138 11.16 15.3258 11.0853 15.0591 10.936C14.8031 10.7867 14.5951 10.5733 14.4351 10.296C14.2858 10.008 14.2111 9.68267 14.2111 9.32ZM26.353 8.52V13H28.881V8.264C28.881 7.67733 28.785 7.176 28.593 6.76C28.4117 6.344 28.1237 6.024 27.729 5.8C27.345 5.576 26.849 5.464 26.241 5.464C25.7077 5.464 25.2543 5.576 24.881 5.8C24.5077 6.024 24.2143 6.33867 24.001 6.744V5.64H21.553V13H24.001V8.52C24.001 8.24267 24.0543 8.00267 24.161 7.8C24.2677 7.58667 24.417 7.432 24.609 7.336C24.801 7.22933 25.025 7.176 25.281 7.176C25.5477 7.176 25.7557 7.22933 25.905 7.336C26.065 7.432 26.177 7.58133 26.241 7.784C26.3157 7.98667 26.353 8.232 26.353 8.52ZM29.9081 5.64V7.64H34.8361V5.64H29.9081ZM31.2041 3.08V13H33.5401V3.08H31.2041ZM37.7539 10.696C37.7539 10.504 37.7912 10.3493 37.8659 10.232C37.9512 10.1147 38.0792 10.024 38.2499 9.96C38.4312 9.896 38.6605 9.864 38.9379 9.864C39.3112 9.864 39.6632 9.91733 39.9939 10.024C40.3352 10.12 40.6339 10.264 40.8899 10.456V9.384C40.7725 9.24533 40.5805 9.112 40.3139 8.984C40.0579 8.856 39.7485 8.75467 39.3859 8.68C39.0232 8.59467 38.6285 8.552 38.2019 8.552C37.5619 8.552 37.0285 8.64267 36.6019 8.824C36.1859 8.99467 35.8659 9.256 35.6419 9.608C35.4285 9.94933 35.3219 10.3547 35.3219 10.824C35.3219 11.3253 35.4392 11.752 35.6739 12.104C35.9192 12.456 36.2392 12.7227 36.6339 12.904C37.0285 13.0747 37.4605 13.16 37.9299 13.16C38.3992 13.16 38.8365 13.08 39.2419 12.92C39.6579 12.7493 39.9885 12.504 40.2339 12.184C40.4899 11.8533 40.6179 11.4533 40.6179 10.984L40.3619 10.024C40.3619 10.3653 40.2872 10.6533 40.1379 10.888C39.9885 11.1227 39.7965 11.2987 39.5619 11.416C39.3272 11.5333 39.0712 11.592 38.7939 11.592C38.6019 11.592 38.4259 11.5547 38.2659 11.48C38.1059 11.4053 37.9779 11.304 37.8819 11.176C37.7965 11.048 37.7539 10.888 37.7539 10.696ZM36.6659 7.896C36.7619 7.832 36.9272 7.752 37.1619 7.656C37.4072 7.54933 37.6899 7.45867 38.0099 7.384C38.3299 7.30933 38.6552 7.272 38.9859 7.272C39.2099 7.272 39.4072 7.29333 39.5779 7.336C39.7485 7.37867 39.8925 7.448 40.0099 7.544C40.1379 7.62933 40.2285 7.74667 40.2819 7.896C40.3352 8.03467 40.3619 8.18933 40.3619 8.36V13H42.6819V7.8C42.6819 7.29867 42.5325 6.872 42.2339 6.52C41.9352 6.168 41.5299 5.90133 41.0179 5.72C40.5165 5.528 39.9352 5.432 39.2739 5.432C38.5805 5.432 37.9405 5.52267 37.3539 5.704C36.7779 5.87467 36.2765 6.06133 35.8499 6.264L36.6659 7.896ZM46.5389 9.32C46.5389 8.95733 46.6242 8.63733 46.7949 8.36C46.9655 8.072 47.2002 7.84267 47.4989 7.672C47.7975 7.50133 48.1282 7.416 48.4909 7.416C48.7575 7.416 49.0295 7.45867 49.3069 7.544C49.5842 7.61867 49.8402 7.736 50.0749 7.896C50.3202 8.056 50.5175 8.25333 50.6669 8.488V6.12C50.4109 5.928 50.0855 5.77333 49.6909 5.656C49.3069 5.53867 48.8375 5.48 48.2829 5.48C47.4615 5.48 46.7309 5.64 46.0909 5.96C45.4509 6.28 44.9442 6.728 44.5709 7.304C44.2082 7.86933 44.0269 8.54133 44.0269 9.32C44.0269 10.088 44.2082 10.76 44.5709 11.336C44.9442 11.912 45.4509 12.36 46.0909 12.68C46.7309 13 47.4615 13.16 48.2829 13.16C48.8375 13.16 49.3069 13.1013 49.6909 12.984C50.0855 12.856 50.4109 12.6907 50.6669 12.488V10.136C50.5175 10.3707 50.3255 10.568 50.0909 10.728C49.8669 10.888 49.6162 11.0107 49.3389 11.096C49.0722 11.1707 48.7895 11.208 48.4909 11.208C48.1282 11.208 47.7975 11.1333 47.4989 10.984C47.2002 10.824 46.9655 10.6053 46.7949 10.328C46.6242 10.0507 46.5389 9.71467 46.5389 9.32ZM51.5175 5.64V7.64H56.4455V5.64H51.5175ZM52.8135 3.08V13H55.1495V3.08H52.8135ZM62.4481 1.8V9.32C62.4481 10.024 62.5601 10.6373 62.7841 11.16C63.0081 11.672 63.3228 12.104 63.7281 12.456C64.1441 12.7973 64.6241 13.048 65.1681 13.208C65.7121 13.3787 66.2988 13.464 66.9281 13.464C67.5575 13.464 68.1441 13.3787 68.6881 13.208C69.2428 13.048 69.7228 12.7973 70.1281 12.456C70.5441 12.104 70.8641 11.672 71.0881 11.16C71.3228 10.6373 71.4401 10.024 71.4401 9.32V1.8H68.7361V9.128C68.7361 9.512 68.6668 9.848 68.5281 10.136C68.3895 10.424 68.1868 10.648 67.9201 10.808C67.6641 10.9573 67.3388 11.032 66.9441 11.032C66.5388 11.032 66.2028 10.9573 65.9361 10.808C65.6801 10.648 65.4828 10.424 65.3441 10.136C65.2055 9.848 65.1361 9.512 65.1361 9.128V1.8H62.4481ZM73.8909 10.328L72.8829 11.928C73.2135 12.184 73.5709 12.4187 73.9549 12.632C74.3389 12.8347 74.7549 12.9947 75.2029 13.112C75.6615 13.24 76.1575 13.304 76.6909 13.304C77.2775 13.304 77.7735 13.2133 78.1789 13.032C78.5949 12.8507 78.9095 12.584 79.1229 12.232C79.3469 11.88 79.4589 11.4427 79.4589 10.92C79.4589 10.4613 79.3575 10.0933 79.1549 9.816C78.9629 9.53867 78.7069 9.30933 78.3869 9.128C78.0775 8.94667 77.7255 8.78667 77.3309 8.648C76.9682 8.50933 76.6589 8.39733 76.4029 8.312C76.1575 8.216 75.9655 8.11467 75.8269 8.008C75.6989 7.90133 75.6349 7.768 75.6349 7.608C75.6349 7.46933 75.6935 7.35733 75.8109 7.272C75.9282 7.18667 76.0882 7.144 76.2909 7.144C76.6215 7.144 76.9895 7.24 77.3949 7.432C77.8002 7.624 78.1469 7.864 78.4349 8.152L79.2989 6.568C79.0215 6.35467 78.7175 6.168 78.3869 6.008C78.0669 5.848 77.7202 5.72 77.3469 5.624C76.9842 5.528 76.5842 5.48 76.1469 5.48C75.6242 5.48 75.1549 5.56 74.7389 5.72C74.3229 5.88 73.9922 6.11467 73.7469 6.424C73.5122 6.73333 73.3949 7.112 73.3949 7.56C73.3949 8.02933 73.4962 8.41333 73.6989 8.712C73.9015 9.01067 74.1629 9.25067 74.4829 9.432C74.8135 9.61333 75.1442 9.768 75.4749 9.896C75.8802 10.0133 76.1949 10.1253 76.4189 10.232C76.6429 10.328 76.8029 10.4347 76.8989 10.552C76.9949 10.6587 77.0429 10.7867 77.0429 10.936C77.0429 11.1173 76.9842 11.2613 76.8669 11.368C76.7495 11.4747 76.5682 11.528 76.3229 11.528C76.1522 11.528 75.9495 11.496 75.7149 11.432C75.4802 11.3573 75.2082 11.2347 74.8989 11.064C74.6002 10.8827 74.2642 10.6373 73.8909 10.328ZM87.6486 0.52C87.0086 1.71467 86.5286 2.97867 86.2086 4.312C85.8886 5.64533 85.7286 6.99467 85.7286 8.36C85.7286 9.71467 85.8886 11.0587 86.2086 12.392C86.5286 13.7253 87.0086 14.9947 87.6486 16.2H89.8726C89.318 14.9947 88.8913 13.7253 88.5926 12.392C88.294 11.0587 88.1446 9.71467 88.1446 8.36C88.1446 6.99467 88.294 5.64533 88.5926 4.312C88.8913 2.97867 89.318 1.71467 89.8726 0.52H87.6486ZM93.5978 7.4C93.5978 6.888 93.6831 6.43467 93.8538 6.04C94.0351 5.63467 94.2804 5.288 94.5898 5C94.8991 4.712 95.2564 4.49333 95.6618 4.344C96.0671 4.19467 96.4991 4.12 96.9578 4.12C97.4911 4.12 97.9604 4.18933 98.3658 4.328C98.7711 4.46667 99.1284 4.648 99.4378 4.872C99.7578 5.096 100.04 5.34133 100.286 5.608V2.664C99.8378 2.312 99.3471 2.04 98.8138 1.848C98.2911 1.64533 97.6191 1.544 96.7978 1.544C95.8911 1.544 95.0644 1.688 94.3177 1.976C93.5711 2.25333 92.9204 2.648 92.3658 3.16C91.8111 3.672 91.3844 4.29067 91.0858 5.016C90.7978 5.73067 90.6538 6.52533 90.6538 7.4C90.6538 8.27467 90.7978 9.07467 91.0858 9.8C91.3844 10.5147 91.8111 11.128 92.3658 11.64C92.9204 12.1413 93.5711 12.536 94.3177 12.824C95.0644 13.1013 95.8911 13.24 96.7978 13.24C97.6191 13.24 98.2911 13.1387 98.8138 12.936C99.3471 12.7333 99.8378 12.4667 100.286 12.136V9.192C100.04 9.45867 99.7578 9.704 99.4378 9.928C99.1284 10.152 98.7711 10.3333 98.3658 10.472C97.9604 10.6107 97.4911 10.68 96.9578 10.68C96.4991 10.68 96.0671 10.6053 95.6618 10.456C95.2564 10.3067 94.8991 10.088 94.5898 9.8C94.2804 9.512 94.0351 9.17067 93.8538 8.776C93.6831 8.37067 93.5978 7.912 93.5978 7.4ZM106.001 13.16C106.94 13.16 107.734 12.9787 108.385 12.616C109.036 12.2533 109.558 11.7093 109.953 10.984L107.777 10.456C107.606 10.776 107.366 11.016 107.057 11.176C106.748 11.336 106.38 11.416 105.953 11.416C105.59 11.416 105.276 11.3307 105.009 11.16C104.753 10.9893 104.561 10.7493 104.433 10.44C104.305 10.12 104.246 9.736 104.257 9.288C104.257 8.91467 104.289 8.59467 104.353 8.328C104.428 8.05067 104.534 7.82133 104.673 7.64C104.812 7.45867 104.982 7.32533 105.185 7.24C105.398 7.144 105.644 7.096 105.921 7.096C106.198 7.096 106.444 7.16 106.657 7.288C106.881 7.416 107.046 7.59733 107.153 7.832C107.26 8.056 107.313 8.33333 107.313 8.664C107.313 8.73867 107.297 8.82933 107.265 8.936C107.233 9.032 107.19 9.128 107.137 9.224L107.713 8.488H103.169V9.832H109.905C109.916 9.74667 109.921 9.65067 109.921 9.544C109.921 9.43733 109.921 9.32533 109.921 9.208C109.921 8.41867 109.766 7.74667 109.457 7.192C109.148 6.63733 108.7 6.216 108.113 5.928C107.526 5.62933 106.806 5.48 105.953 5.48C105.313 5.48 104.737 5.57067 104.225 5.752C103.713 5.92267 103.276 6.17333 102.913 6.504C102.55 6.83467 102.273 7.24 102.081 7.72C101.9 8.18933 101.809 8.72267 101.809 9.32C101.809 10.0987 101.98 10.776 102.321 11.352C102.662 11.928 103.142 12.376 103.761 12.696C104.39 13.0053 105.137 13.16 106.001 13.16ZM116.197 8.52V13H118.725V8.264C118.725 7.67733 118.629 7.176 118.437 6.76C118.255 6.344 117.967 6.024 117.573 5.8C117.189 5.576 116.693 5.464 116.085 5.464C115.551 5.464 115.098 5.576 114.725 5.8C114.351 6.024 114.058 6.33867 113.845 6.744V5.64H111.397V13H113.845V8.52C113.845 8.24267 113.898 8.00267 114.005 7.8C114.111 7.58667 114.261 7.432 114.453 7.336C114.645 7.22933 114.869 7.176 115.125 7.176C115.391 7.176 115.599 7.22933 115.749 7.336C115.909 7.432 116.021 7.58133 116.085 7.784C116.159 7.98667 116.197 8.232 116.197 8.52ZM119.752 5.64V7.64H124.68V5.64H119.752ZM121.048 3.08V13H123.384V3.08H121.048ZM128.094 5.64H125.694V13H128.094V5.64ZM130.222 8.152L131.278 6.056C131.16 5.896 130.974 5.75733 130.718 5.64C130.472 5.52267 130.216 5.464 129.95 5.464C129.534 5.464 129.139 5.59733 128.766 5.864C128.403 6.13067 128.104 6.49333 127.87 6.952C127.635 7.41067 127.518 7.93333 127.518 8.52L128.094 9.368C128.094 9.016 128.142 8.71733 128.238 8.472C128.344 8.22667 128.488 8.04533 128.67 7.928C128.851 7.8 129.054 7.736 129.278 7.736C129.491 7.736 129.667 7.77333 129.806 7.848C129.955 7.92267 130.094 8.024 130.222 8.152ZM134.191 10.696C134.191 10.504 134.229 10.3493 134.303 10.232C134.389 10.1147 134.517 10.024 134.687 9.96C134.869 9.896 135.098 9.864 135.375 9.864C135.749 9.864 136.101 9.91733 136.431 10.024C136.773 10.12 137.071 10.264 137.327 10.456V9.384C137.21 9.24533 137.018 9.112 136.751 8.984C136.495 8.856 136.186 8.75467 135.823 8.68C135.461 8.59467 135.066 8.552 134.639 8.552C133.999 8.552 133.466 8.64267 133.039 8.824C132.623 8.99467 132.303 9.256 132.079 9.608C131.866 9.94933 131.759 10.3547 131.759 10.824C131.759 11.3253 131.877 11.752 132.111 12.104C132.357 12.456 132.677 12.7227 133.071 12.904C133.466 13.0747 133.898 13.16 134.367 13.16C134.837 13.16 135.274 13.08 135.679 12.92C136.095 12.7493 136.426 12.504 136.671 12.184C136.927 11.8533 137.055 11.4533 137.055 10.984L136.799 10.024C136.799 10.3653 136.725 10.6533 136.575 10.888C136.426 11.1227 136.234 11.2987 135.999 11.416C135.765 11.5333 135.509 11.592 135.231 11.592C135.039 11.592 134.863 11.5547 134.703 11.48C134.543 11.4053 134.415 11.304 134.319 11.176C134.234 11.048 134.191 10.888 134.191 10.696ZM133.103 7.896C133.199 7.832 133.365 7.752 133.599 7.656C133.845 7.54933 134.127 7.45867 134.447 7.384C134.767 7.30933 135.093 7.272 135.423 7.272C135.647 7.272 135.845 7.29333 136.015 7.336C136.186 7.37867 136.33 7.448 136.447 7.544C136.575 7.62933 136.666 7.74667 136.719 7.896C136.773 8.03467 136.799 8.18933 136.799 8.36V13H139.119V7.8C139.119 7.29867 138.97 6.872 138.671 6.52C138.373 6.168 137.967 5.90133 137.455 5.72C136.954 5.528 136.373 5.432 135.711 5.432C135.018 5.432 134.378 5.52267 133.791 5.704C133.215 5.87467 132.714 6.06133 132.287 6.264L133.103 7.896ZM140.912 0.52V13H143.36V0.52H140.912ZM152.502 7.4C152.502 6.89867 152.576 6.44533 152.726 6.04C152.875 5.624 153.088 5.272 153.366 4.984C153.654 4.68533 153.99 4.45067 154.374 4.28C154.768 4.10933 155.206 4.024 155.686 4.024C156.166 4.024 156.598 4.10933 156.982 4.28C157.376 4.45067 157.712 4.68533 157.99 4.984C158.267 5.28267 158.475 5.63467 158.614 6.04C158.752 6.44533 158.822 6.89867 158.822 7.4C158.822 7.89067 158.747 8.344 158.598 8.76C158.448 9.176 158.235 9.53333 157.958 9.832C157.68 10.12 157.35 10.3493 156.966 10.52C156.582 10.6907 156.15 10.776 155.67 10.776C155.2 10.776 154.768 10.6907 154.374 10.52C153.99 10.3493 153.654 10.1147 153.366 9.816C153.088 9.51733 152.875 9.16533 152.726 8.76C152.576 8.344 152.502 7.89067 152.502 7.4ZM149.654 7.4C149.654 8.264 149.798 9.05867 150.086 9.784C150.374 10.5093 150.79 11.1387 151.334 11.672C151.878 12.2053 152.518 12.6213 153.254 12.92C153.99 13.208 154.8 13.352 155.686 13.352C156.56 13.352 157.36 13.208 158.086 12.92C158.822 12.6213 159.462 12.2053 160.006 11.672C160.55 11.1387 160.971 10.5093 161.27 9.784C161.568 9.05867 161.718 8.264 161.718 7.4C161.718 6.536 161.563 5.74667 161.254 5.032C160.944 4.31733 160.518 3.69867 159.974 3.176C159.44 2.64267 158.806 2.23733 158.07 1.96C157.344 1.68267 156.55 1.544 155.686 1.544C154.832 1.544 154.038 1.68267 153.302 1.96C152.566 2.23733 151.92 2.63733 151.366 3.16C150.822 3.68267 150.4 4.30667 150.102 5.032C149.803 5.74667 149.654 6.536 149.654 7.4ZM162.522 5.64V7.64H167.546V5.64H162.522ZM167.306 2.84L168.266 1.064C168.16 0.957333 168.016 0.845333 167.834 0.728C167.664 0.599999 167.44 0.493333 167.162 0.407999C166.896 0.311999 166.581 0.263999 166.218 0.263999C165.621 0.263999 165.109 0.370666 164.682 0.584C164.266 0.797333 163.957 1.10133 163.754 1.496C163.552 1.89067 163.45 2.36533 163.45 2.92V13H165.77V3.544C165.77 3.27733 165.802 3.064 165.866 2.904C165.93 2.744 166.016 2.62667 166.122 2.552C166.24 2.47733 166.378 2.44 166.538 2.44C166.698 2.44 166.837 2.472 166.954 2.536C167.082 2.58933 167.2 2.69067 167.306 2.84ZM168.022 5.64V7.64H173.046V5.64H168.022ZM172.806 2.84L173.766 1.064C173.66 0.957333 173.516 0.845333 173.334 0.728C173.164 0.599999 172.94 0.493333 172.662 0.407999C172.396 0.311999 172.081 0.263999 171.718 0.263999C171.121 0.263999 170.609 0.370666 170.182 0.584C169.766 0.797333 169.457 1.10133 169.254 1.496C169.052 1.89067 168.95 2.36533 168.95 2.92V13H171.27V3.544C171.27 3.27733 171.302 3.064 171.366 2.904C171.43 2.744 171.516 2.62667 171.622 2.552C171.74 2.47733 171.878 2.44 172.038 2.44C172.198 2.44 172.337 2.472 172.454 2.536C172.582 2.58933 172.7 2.69067 172.806 2.84ZM174.034 2.888C174.034 3.272 174.168 3.58133 174.434 3.816C174.701 4.05067 175.037 4.168 175.442 4.168C175.837 4.168 176.168 4.05067 176.434 3.816C176.712 3.58133 176.85 3.272 176.85 2.888C176.85 2.504 176.712 2.18933 176.434 1.944C176.168 1.69867 175.837 1.576 175.442 1.576C175.037 1.576 174.701 1.69867 174.434 1.944C174.168 2.18933 174.034 2.504 174.034 2.888ZM174.258 5.64V13H176.61V5.64H174.258ZM180.664 9.32C180.664 8.95733 180.749 8.63733 180.92 8.36C181.091 8.072 181.325 7.84267 181.624 7.672C181.923 7.50133 182.253 7.416 182.616 7.416C182.883 7.416 183.155 7.45867 183.432 7.544C183.709 7.61867 183.965 7.736 184.2 7.896C184.445 8.056 184.643 8.25333 184.792 8.488V6.12C184.536 5.928 184.211 5.77333 183.816 5.656C183.432 5.53867 182.963 5.48 182.408 5.48C181.587 5.48 180.856 5.64 180.216 5.96C179.576 6.28 179.069 6.728 178.696 7.304C178.333 7.86933 178.152 8.54133 178.152 9.32C178.152 10.088 178.333 10.76 178.696 11.336C179.069 11.912 179.576 12.36 180.216 12.68C180.856 13 181.587 13.16 182.408 13.16C182.963 13.16 183.432 13.1013 183.816 12.984C184.211 12.856 184.536 12.6907 184.792 12.488V10.136C184.643 10.3707 184.451 10.568 184.216 10.728C183.992 10.888 183.741 11.0107 183.464 11.096C183.197 11.1707 182.915 11.208 182.616 11.208C182.253 11.208 181.923 11.1333 181.624 10.984C181.325 10.824 181.091 10.6053 180.92 10.328C180.749 10.0507 180.664 9.71467 180.664 9.32ZM190.266 13.16C191.205 13.16 192 12.9787 192.651 12.616C193.301 12.2533 193.824 11.7093 194.219 10.984L192.043 10.456C191.872 10.776 191.632 11.016 191.323 11.176C191.013 11.336 190.645 11.416 190.219 11.416C189.856 11.416 189.541 11.3307 189.275 11.16C189.019 10.9893 188.827 10.7493 188.699 10.44C188.571 10.12 188.512 9.736 188.523 9.288C188.523 8.91467 188.555 8.59467 188.619 8.328C188.693 8.05067 188.8 7.82133 188.939 7.64C189.077 7.45867 189.248 7.32533 189.451 7.24C189.664 7.144 189.909 7.096 190.187 7.096C190.464 7.096 190.709 7.16 190.923 7.288C191.147 7.416 191.312 7.59733 191.419 7.832C191.525 8.056 191.579 8.33333 191.579 8.664C191.579 8.73867 191.563 8.82933 191.531 8.936C191.499 9.032 191.456 9.128 191.403 9.224L191.979 8.488H187.435V9.832H194.171C194.181 9.74667 194.187 9.65067 194.187 9.544C194.187 9.43733 194.187 9.32533 194.187 9.208C194.187 8.41867 194.032 7.74667 193.723 7.192C193.413 6.63733 192.965 6.216 192.379 5.928C191.792 5.62933 191.072 5.48 190.219 5.48C189.579 5.48 189.003 5.57067 188.491 5.752C187.979 5.92267 187.541 6.17333 187.179 6.504C186.816 6.83467 186.539 7.24 186.347 7.72C186.165 8.18933 186.075 8.72267 186.075 9.32C186.075 10.0987 186.245 10.776 186.587 11.352C186.928 11.928 187.408 12.376 188.027 12.696C188.656 13.0053 189.403 13.16 190.266 13.16ZM197.166 16.2C197.806 14.9947 198.286 13.7253 198.606 12.392C198.937 11.0587 199.102 9.71467 199.102 8.36C199.102 6.99467 198.937 5.64533 198.606 4.312C198.286 2.97867 197.806 1.71467 197.166 0.52H194.942C195.508 1.71467 195.945 2.97867 196.254 4.312C196.574 5.64533 196.734 6.99467 196.734 8.36C196.734 9.71467 196.574 11.0587 196.254 12.392C195.945 13.7253 195.508 14.9947 194.942 16.2H197.166ZM1.2 27.8V39H3.888V27.8H1.2ZM2.88 30.024H5.072C5.43467 30.024 5.74933 30.0827 6.016 30.2C6.28267 30.3067 6.48 30.4667 6.608 30.68C6.74667 30.8933 6.816 31.16 6.816 31.48C6.816 31.7787 6.74667 32.0347 6.608 32.248C6.48 32.4613 6.28267 32.6213 6.016 32.728C5.74933 32.8347 5.43467 32.888 5.072 32.888H2.88V35.144H5.072C6.032 35.144 6.832 34.9947 7.472 34.696C8.12267 34.3973 8.608 33.976 8.928 33.432C9.25867 32.8773 9.424 32.2267 9.424 31.48C9.424 30.712 9.25867 30.056 8.928 29.512C8.608 28.9573 8.12267 28.536 7.472 28.248C6.832 27.9493 6.032 27.8 5.072 27.8H2.88V30.024ZM15.8376 37.928C15.8376 38.3227 15.9763 38.664 16.2536 38.952C16.5416 39.24 16.9043 39.384 17.3416 39.384C17.779 39.384 18.1416 39.24 18.4296 38.952C18.7176 38.664 18.8616 38.3227 18.8616 37.928C18.8616 37.512 18.7176 37.16 18.4296 36.872C18.1416 36.5733 17.779 36.424 17.3416 36.424C16.9043 36.424 16.5416 36.5733 16.2536 36.872C15.9763 37.16 15.8376 37.512 15.8376 37.928ZM15.8376 31.928C15.8376 32.3333 15.9763 32.6853 16.2536 32.984C16.5416 33.2827 16.9043 33.432 17.3416 33.432C17.779 33.432 18.1416 33.2827 18.4296 32.984C18.7176 32.6853 18.8616 32.3333 18.8616 31.928C18.8616 31.5227 18.7176 31.176 18.4296 30.888C18.1416 30.6 17.779 30.456 17.3416 30.456C16.9043 30.456 16.5416 30.6 16.2536 30.888C15.9763 31.176 15.8376 31.5227 15.8376 31.928ZM25.7588 35.864H34.4628V33.528H25.7588V35.864ZM28.8788 30.344V39.032H31.3748V30.344H28.8788ZM36.6036 31.032L39.3716 30.36V39H41.9956V27.592L36.6036 28.664V31.032ZM48.7888 39H58.2928V36.52H53.8128L56.4048 34.168C56.8954 33.7627 57.2848 33.304 57.5728 32.792C57.8714 32.28 58.0208 31.7253 58.0208 31.128C58.0208 30.7013 57.9301 30.28 57.7488 29.864C57.5674 29.448 57.2954 29.0693 56.9328 28.728C56.5808 28.376 56.1381 28.0987 55.6048 27.896C55.0821 27.6827 54.4741 27.576 53.7808 27.576C52.8101 27.576 51.9941 27.7733 51.3328 28.168C50.6714 28.5627 50.1754 29.0907 49.8448 29.752C49.5141 30.4133 49.3488 31.144 49.3488 31.944H52.0048C52.0048 31.5387 52.0741 31.1867 52.2128 30.888C52.3514 30.5787 52.5434 30.3387 52.7888 30.168C53.0448 29.9973 53.3434 29.912 53.6848 29.912C53.9408 29.912 54.1594 29.9547 54.3408 30.04C54.5328 30.1147 54.6981 30.2213 54.8368 30.36C54.9754 30.488 55.0714 30.6373 55.1248 30.808C55.1888 30.968 55.2208 31.1387 55.2208 31.32C55.2208 31.5973 55.1568 31.8693 55.0288 32.136C54.9114 32.4027 54.7461 32.6747 54.5328 32.952C54.3301 33.2187 54.0794 33.512 53.7808 33.832L48.7888 39ZM68.6488 35.4C68.6488 34.632 68.4888 33.9813 68.1688 33.448C67.8488 32.904 67.4274 32.488 66.9048 32.2C66.3928 31.9013 65.8381 31.752 65.2408 31.752C64.8888 31.752 64.5474 31.7787 64.2168 31.832C63.8968 31.8853 63.5874 31.9867 63.2888 32.136L63.9288 30.152H68.4248V27.8H61.9608L60.3768 34.264C60.7608 34.0827 61.1394 33.9387 61.5128 33.832C61.8861 33.7253 62.2434 33.656 62.5848 33.624C62.9261 33.5813 63.2408 33.56 63.5288 33.56C63.9021 33.56 64.2488 33.6187 64.5688 33.736C64.8994 33.8427 65.1661 34.0133 65.3688 34.248C65.5714 34.472 65.6728 34.7653 65.6728 35.128C65.6728 35.4907 65.5874 35.7893 65.4168 36.024C65.2568 36.2587 65.0114 36.4347 64.6808 36.552C64.3608 36.6693 63.9768 36.728 63.5288 36.728C63.2514 36.728 62.9474 36.68 62.6168 36.584C62.2968 36.488 61.9714 36.3493 61.6408 36.168C61.3101 35.9867 60.9954 35.7733 60.6968 35.528L59.6408 37.752C59.9928 38.008 60.3821 38.248 60.8088 38.472C61.2461 38.696 61.7368 38.872 62.2808 39C62.8354 39.1387 63.4541 39.208 64.1368 39.208C64.6808 39.208 65.2194 39.1333 65.7528 38.984C66.2861 38.8347 66.7714 38.6107 67.2088 38.312C67.6461 38.0027 67.9928 37.608 68.2488 37.128C68.5154 36.648 68.6488 36.072 68.6488 35.4ZM73.6813 33.56C74.3426 33.56 74.9613 33.5067 75.5373 33.4C76.1133 33.2827 76.6146 33.1067 77.0413 32.872C77.4786 32.6373 77.8199 32.3387 78.0653 31.976C78.3106 31.6027 78.4333 31.1707 78.4333 30.68C78.4333 30.1147 78.2786 29.5973 77.9693 29.128C77.6599 28.6587 77.2119 28.2853 76.6253 28.008C76.0386 27.7307 75.3239 27.592 74.4813 27.592C73.6813 27.592 72.9826 27.7467 72.3853 28.056C71.7986 28.3653 71.3399 28.7813 71.0093 29.304C70.6893 29.816 70.5293 30.408 70.5293 31.08H73.0253C73.0253 30.824 73.0893 30.5947 73.2173 30.392C73.3453 30.1893 73.5159 30.0347 73.7293 29.928C73.9533 29.8107 74.2093 29.752 74.4973 29.752C74.7746 29.752 75.0039 29.8 75.1853 29.896C75.3773 29.992 75.5159 30.1253 75.6013 30.296C75.6973 30.456 75.7453 30.648 75.7453 30.872C75.7453 31.0747 75.6973 31.2667 75.6013 31.448C75.5053 31.6187 75.3666 31.7733 75.1853 31.912C75.0039 32.0507 74.7853 32.1627 74.5293 32.248C74.2733 32.3227 73.9906 32.36 73.6813 32.36V33.56ZM74.3533 39.24C75.2706 39.24 76.0546 39.1013 76.7053 38.824C77.3666 38.5467 77.8733 38.1627 78.2253 37.672C78.5773 37.1707 78.7533 36.5947 78.7533 35.944C78.7533 35.368 78.6253 34.8773 78.3693 34.472C78.1133 34.0667 77.7613 33.736 77.3133 33.48C76.8759 33.224 76.3426 33.0373 75.7133 32.92C75.0839 32.792 74.4066 32.728 73.6813 32.728V34.104C74.0866 34.104 74.4386 34.1413 74.7373 34.216C75.0466 34.2907 75.2973 34.3973 75.4893 34.536C75.6813 34.6747 75.8253 34.84 75.9213 35.032C76.0173 35.224 76.0653 35.4373 76.0653 35.672C76.0653 35.992 75.9959 36.2533 75.8573 36.456C75.7293 36.6587 75.5426 36.8133 75.2973 36.92C75.0519 37.0267 74.7746 37.08 74.4653 37.08C74.1559 37.08 73.8679 37.0213 73.6013 36.904C73.3346 36.7867 73.1213 36.6053 72.9613 36.36C72.8013 36.1147 72.7213 35.8053 72.7213 35.432H70.0493C70.0493 35.944 70.1399 36.4293 70.3213 36.888C70.5133 37.336 70.7959 37.7413 71.1693 38.104C71.5533 38.456 72.0119 38.7333 72.5453 38.936C73.0786 39.1387 73.6813 39.24 74.3533 39.24ZM79.2988 36.264H82.7068V34.152H79.2988V36.264ZM83.9976 30.504C83.9976 31.0267 84.1043 31.4747 84.3176 31.848C84.5416 32.2213 84.8403 32.536 85.2136 32.792C85.587 33.0373 85.9923 33.224 86.4296 33.352C86.8776 33.4693 87.331 33.528 87.7896 33.528C88.2483 33.528 88.7016 33.4693 89.1496 33.352C89.5976 33.224 90.003 33.0373 90.3656 32.792C90.7283 32.536 91.0216 32.2213 91.2456 31.848C91.4696 31.4747 91.5816 31.0267 91.5816 30.504C91.5816 30.024 91.4803 29.6027 91.2776 29.24C91.075 28.8773 90.7976 28.5733 90.4456 28.328C90.1043 28.072 89.7043 27.88 89.2456 27.752C88.7976 27.6133 88.3176 27.544 87.8056 27.544C87.1123 27.544 86.4776 27.6613 85.9016 27.896C85.3256 28.12 84.8616 28.456 84.5096 28.904C84.1683 29.3413 83.9976 29.8747 83.9976 30.504ZM86.5576 30.76C86.5576 30.5147 86.6056 30.296 86.7016 30.104C86.8083 29.912 86.9523 29.7627 87.1336 29.656C87.3256 29.5493 87.5443 29.496 87.7896 29.496C88.035 29.496 88.2483 29.5493 88.4296 29.656C88.6216 29.7627 88.7656 29.912 88.8616 30.104C88.9683 30.296 89.0216 30.5147 89.0216 30.76C89.0216 31.0053 88.9683 31.2293 88.8616 31.432C88.755 31.624 88.6056 31.7733 88.4136 31.88C88.2323 31.9867 88.0296 32.04 87.8056 32.04C87.571 32.04 87.3576 31.9867 87.1656 31.88C86.9736 31.7733 86.8243 31.624 86.7176 31.432C86.611 31.2293 86.5576 31.0053 86.5576 30.76ZM83.5976 35.96C83.5976 36.4827 83.7096 36.9467 83.9336 37.352C84.1683 37.7467 84.4776 38.088 84.8616 38.376C85.2563 38.664 85.7043 38.8773 86.2056 39.016C86.7176 39.1653 87.251 39.24 87.8056 39.24C88.3603 39.24 88.883 39.1653 89.3736 39.016C89.875 38.8773 90.323 38.664 90.7176 38.376C91.1123 38.088 91.4216 37.7467 91.6456 37.352C91.8696 36.9467 91.9816 36.4827 91.9816 35.96C91.9816 35.352 91.8483 34.8453 91.5816 34.44C91.3256 34.024 90.9896 33.688 90.5736 33.432C90.1576 33.1653 89.7043 32.9733 89.2136 32.856C88.723 32.728 88.2483 32.664 87.7896 32.664C87.331 32.664 86.8563 32.728 86.3656 32.856C85.8856 32.9733 85.4323 33.1653 85.0056 33.432C84.5896 33.688 84.2483 34.024 83.9816 34.44C83.7256 34.8453 83.5976 35.352 83.5976 35.96ZM86.3016 35.544C86.3016 35.256 86.3656 35.0107 86.4936 34.808C86.6323 34.5947 86.8136 34.424 87.0376 34.296C87.2723 34.1573 87.523 34.088 87.7896 34.088C88.0563 34.088 88.3016 34.152 88.5256 34.28C88.7603 34.408 88.9416 34.5787 89.0696 34.792C89.2083 35.0053 89.2776 35.256 89.2776 35.544C89.2776 35.8533 89.2083 36.1253 89.0696 36.36C88.9416 36.584 88.7603 36.76 88.5256 36.888C88.3016 37.0053 88.0563 37.064 87.7896 37.064C87.523 37.064 87.2723 37.0053 87.0376 36.888C86.8136 36.76 86.6323 36.584 86.4936 36.36C86.3656 36.136 86.3016 35.864 86.3016 35.544ZM96.2689 35.048C96.2689 34.6747 96.3489 34.3493 96.5089 34.072C96.6795 33.784 96.9089 33.56 97.1969 33.4C97.4955 33.24 97.8155 33.16 98.1569 33.16C98.5195 33.16 98.8395 33.24 99.1169 33.4C99.3942 33.56 99.6182 33.784 99.7889 34.072C99.9595 34.3493 100.045 34.68 100.045 35.064C100.045 35.4267 99.9595 35.7573 99.7889 36.056C99.6182 36.344 99.3942 36.568 99.1169 36.728C98.8395 36.8773 98.5195 36.952 98.1569 36.952C97.8155 36.952 97.5009 36.8773 97.2129 36.728C96.9249 36.568 96.6955 36.344 96.5249 36.056C96.3542 35.7573 96.2689 35.4213 96.2689 35.048ZM98.1249 27.848L94.9249 31.944C94.5515 32.392 94.2369 32.872 93.9809 33.384C93.7249 33.896 93.5969 34.4507 93.5969 35.048C93.5969 35.976 93.7995 36.7547 94.2049 37.384C94.6209 38.0133 95.1755 38.4827 95.8689 38.792C96.5622 39.0907 97.3249 39.24 98.1569 39.24C98.9995 39.24 99.7622 39.0907 100.445 38.792C101.138 38.4827 101.688 38.0133 102.093 37.384C102.509 36.7547 102.717 35.976 102.717 35.048C102.717 34.4933 102.616 33.992 102.413 33.544C102.221 33.096 101.954 32.7173 101.613 32.408C101.272 32.088 100.893 31.8427 100.477 31.672C100.072 31.5013 99.6662 31.416 99.2609 31.416C98.8555 31.416 98.5142 31.464 98.2369 31.56C97.9702 31.656 97.6822 31.848 97.3729 32.136L97.9329 31.896L101.565 27.848H98.1249ZM107.9 33.56C108.561 33.56 109.18 33.5067 109.756 33.4C110.332 33.2827 110.833 33.1067 111.26 32.872C111.697 32.6373 112.039 32.3387 112.284 31.976C112.529 31.6027 112.652 31.1707 112.652 30.68C112.652 30.1147 112.497 29.5973 112.188 29.128C111.879 28.6587 111.431 28.2853 110.844 28.008C110.257 27.7307 109.543 27.592 108.7 27.592C107.9 27.592 107.201 27.7467 106.604 28.056C106.017 28.3653 105.559 28.7813 105.228 29.304C104.908 29.816 104.748 30.408 104.748 31.08H107.244C107.244 30.824 107.308 30.5947 107.436 30.392C107.564 30.1893 107.735 30.0347 107.948 29.928C108.172 29.8107 108.428 29.752 108.716 29.752C108.993 29.752 109.223 29.8 109.404 29.896C109.596 29.992 109.735 30.1253 109.82 30.296C109.916 30.456 109.964 30.648 109.964 30.872C109.964 31.0747 109.916 31.2667 109.82 31.448C109.724 31.6187 109.585 31.7733 109.404 31.912C109.223 32.0507 109.004 32.1627 108.748 32.248C108.492 32.3227 108.209 32.36 107.9 32.36V33.56ZM108.572 39.24C109.489 39.24 110.273 39.1013 110.924 38.824C111.585 38.5467 112.092 38.1627 112.444 37.672C112.796 37.1707 112.972 36.5947 112.972 35.944C112.972 35.368 112.844 34.8773 112.588 34.472C112.332 34.0667 111.98 33.736 111.532 33.48C111.095 33.224 110.561 33.0373 109.932 32.92C109.303 32.792 108.625 32.728 107.9 32.728V34.104C108.305 34.104 108.657 34.1413 108.956 34.216C109.265 34.2907 109.516 34.3973 109.708 34.536C109.9 34.6747 110.044 34.84 110.14 35.032C110.236 35.224 110.284 35.4373 110.284 35.672C110.284 35.992 110.215 36.2533 110.076 36.456C109.948 36.6587 109.761 36.8133 109.516 36.92C109.271 37.0267 108.993 37.08 108.684 37.08C108.375 37.08 108.087 37.0213 107.82 36.904C107.553 36.7867 107.34 36.6053 107.18 36.36C107.02 36.1147 106.94 35.8053 106.94 35.432H104.268C104.268 35.944 104.359 36.4293 104.54 36.888C104.732 37.336 105.015 37.7413 105.388 38.104C105.772 38.456 106.231 38.7333 106.764 38.936C107.297 39.1387 107.9 39.24 108.572 39.24ZM113.518 36.264H116.926V34.152H113.518V36.264ZM118.216 30.504C118.216 31.0267 118.323 31.4747 118.536 31.848C118.76 32.2213 119.059 32.536 119.432 32.792C119.806 33.0373 120.211 33.224 120.648 33.352C121.096 33.4693 121.55 33.528 122.008 33.528C122.467 33.528 122.92 33.4693 123.368 33.352C123.816 33.224 124.222 33.0373 124.584 32.792C124.947 32.536 125.24 32.2213 125.464 31.848C125.688 31.4747 125.8 31.0267 125.8 30.504C125.8 30.024 125.699 29.6027 125.496 29.24C125.294 28.8773 125.016 28.5733 124.664 28.328C124.323 28.072 123.923 27.88 123.464 27.752C123.016 27.6133 122.536 27.544 122.024 27.544C121.331 27.544 120.696 27.6613 120.12 27.896C119.544 28.12 119.08 28.456 118.728 28.904C118.387 29.3413 118.216 29.8747 118.216 30.504ZM120.776 30.76C120.776 30.5147 120.824 30.296 120.92 30.104C121.027 29.912 121.171 29.7627 121.352 29.656C121.544 29.5493 121.763 29.496 122.008 29.496C122.254 29.496 122.467 29.5493 122.648 29.656C122.84 29.7627 122.984 29.912 123.08 30.104C123.187 30.296 123.24 30.5147 123.24 30.76C123.24 31.0053 123.187 31.2293 123.08 31.432C122.974 31.624 122.824 31.7733 122.632 31.88C122.451 31.9867 122.248 32.04 122.024 32.04C121.79 32.04 121.576 31.9867 121.384 31.88C121.192 31.7733 121.043 31.624 120.936 31.432C120.83 31.2293 120.776 31.0053 120.776 30.76ZM117.816 35.96C117.816 36.4827 117.928 36.9467 118.152 37.352C118.387 37.7467 118.696 38.088 119.08 38.376C119.475 38.664 119.923 38.8773 120.424 39.016C120.936 39.1653 121.47 39.24 122.024 39.24C122.579 39.24 123.102 39.1653 123.592 39.016C124.094 38.8773 124.542 38.664 124.936 38.376C125.331 38.088 125.64 37.7467 125.864 37.352C126.088 36.9467 126.2 36.4827 126.2 35.96C126.2 35.352 126.067 34.8453 125.8 34.44C125.544 34.024 125.208 33.688 124.792 33.432C124.376 33.1653 123.923 32.9733 123.432 32.856C122.942 32.728 122.467 32.664 122.008 32.664C121.55 32.664 121.075 32.728 120.584 32.856C120.104 32.9733 119.651 33.1653 119.224 33.432C118.808 33.688 118.467 34.024 118.2 34.44C117.944 34.8453 117.816 35.352 117.816 35.96ZM120.52 35.544C120.52 35.256 120.584 35.0107 120.712 34.808C120.851 34.5947 121.032 34.424 121.256 34.296C121.491 34.1573 121.742 34.088 122.008 34.088C122.275 34.088 122.52 34.152 122.744 34.28C122.979 34.408 123.16 34.5787 123.288 34.792C123.427 35.0053 123.496 35.256 123.496 35.544C123.496 35.8533 123.427 36.1253 123.288 36.36C123.16 36.584 122.979 36.76 122.744 36.888C122.52 37.0053 122.275 37.064 122.008 37.064C121.742 37.064 121.491 37.0053 121.256 36.888C121.032 36.76 120.851 36.584 120.712 36.36C120.584 36.136 120.52 35.864 120.52 35.544ZM134.264 31.752C134.264 32.1147 134.178 32.44 134.008 32.728C133.837 33.016 133.613 33.24 133.336 33.4C133.058 33.56 132.738 33.64 132.376 33.64C132.024 33.64 131.704 33.56 131.416 33.4C131.138 33.24 130.914 33.016 130.744 32.728C130.573 32.44 130.488 32.1147 130.488 31.752C130.488 31.368 130.573 31.032 130.744 30.744C130.914 30.456 131.138 30.2373 131.416 30.088C131.704 29.928 132.024 29.848 132.376 29.848C132.738 29.848 133.058 29.928 133.336 30.088C133.613 30.2373 133.837 30.456 134.008 30.744C134.178 31.032 134.264 31.368 134.264 31.752ZM132.408 38.952L135.624 34.856C135.997 34.408 136.306 33.928 136.552 33.416C136.808 32.904 136.936 32.3493 136.936 31.752C136.936 30.824 136.728 30.0453 136.312 29.416C135.906 28.7867 135.357 28.3173 134.664 28.008C133.981 27.6987 133.218 27.544 132.376 27.544C131.544 27.544 130.781 27.6987 130.088 28.008C129.394 28.3173 128.84 28.7867 128.424 29.416C128.018 30.0453 127.816 30.824 127.816 31.752C127.816 32.3067 127.912 32.808 128.104 33.256C128.306 33.704 128.573 34.088 128.904 34.408C129.245 34.7173 129.618 34.9573 130.024 35.128C130.44 35.2987 130.856 35.384 131.272 35.384C131.677 35.384 132.013 35.336 132.28 35.24C132.557 35.144 132.845 34.952 133.144 34.664L132.6 34.904L128.968 38.952H132.408ZM141.191 35.048C141.191 34.6747 141.271 34.3493 141.431 34.072C141.601 33.784 141.831 33.56 142.119 33.4C142.417 33.24 142.737 33.16 143.079 33.16C143.441 33.16 143.761 33.24 144.039 33.4C144.316 33.56 144.54 33.784 144.711 34.072C144.881 34.3493 144.967 34.68 144.967 35.064C144.967 35.4267 144.881 35.7573 144.711 36.056C144.54 36.344 144.316 36.568 144.039 36.728C143.761 36.8773 143.441 36.952 143.079 36.952C142.737 36.952 142.423 36.8773 142.135 36.728C141.847 36.568 141.617 36.344 141.447 36.056C141.276 35.7573 141.191 35.4213 141.191 35.048ZM143.047 27.848L139.847 31.944C139.473 32.392 139.159 32.872 138.903 33.384C138.647 33.896 138.519 34.4507 138.519 35.048C138.519 35.976 138.721 36.7547 139.127 37.384C139.543 38.0133 140.097 38.4827 140.791 38.792C141.484 39.0907 142.247 39.24 143.079 39.24C143.921 39.24 144.684 39.0907 145.367 38.792C146.06 38.4827 146.609 38.0133 147.015 37.384C147.431 36.7547 147.639 35.976 147.639 35.048C147.639 34.4933 147.537 33.992 147.335 33.544C147.143 33.096 146.876 32.7173 146.535 32.408C146.193 32.088 145.815 31.8427 145.399 31.672C144.993 31.5013 144.588 31.416 144.183 31.416C143.777 31.416 143.436 31.464 143.159 31.56C142.892 31.656 142.604 31.848 142.295 32.136L142.855 31.896L146.487 27.848H143.047ZM148.902 30.328H154.07L149.686 39H152.63L158.038 27.8H148.902V30.328ZM4.08 59.304L7.136 63.96L10.192 59.304L10.88 65H13.744L11.904 53.24L7.136 60.056L2.352 53.24L0.56 65H3.392L4.08 59.304ZM20.1189 63.928C20.1189 64.3227 20.2575 64.664 20.5349 64.952C20.8229 65.24 21.1855 65.384 21.6229 65.384C22.0602 65.384 22.4229 65.24 22.7109 64.952C22.9989 64.664 23.1429 64.3227 23.1429 63.928C23.1429 63.512 22.9989 63.16 22.7109 62.872C22.4229 62.5733 22.0602 62.424 21.6229 62.424C21.1855 62.424 20.8229 62.5733 20.5349 62.872C20.2575 63.16 20.1189 63.512 20.1189 63.928ZM20.1189 57.928C20.1189 58.3333 20.2575 58.6853 20.5349 58.984C20.8229 59.2827 21.1855 59.432 21.6229 59.432C22.0602 59.432 22.4229 59.2827 22.7109 58.984C22.9989 58.6853 23.1429 58.3333 23.1429 57.928C23.1429 57.5227 22.9989 57.176 22.7109 56.888C22.4229 56.6 22.0602 56.456 21.6229 56.456C21.1855 56.456 20.8229 56.6 20.5349 56.888C20.2575 57.176 20.1189 57.5227 20.1189 57.928ZM31.992 61.32C31.992 60.9573 32.0773 60.6373 32.248 60.36C32.4187 60.072 32.6533 59.8427 32.952 59.672C33.2507 59.5013 33.5813 59.416 33.944 59.416C34.2107 59.416 34.4827 59.4587 34.76 59.544C35.0373 59.6187 35.2933 59.736 35.528 59.896C35.7733 60.056 35.9707 60.2533 36.12 60.488V58.12C35.864 57.928 35.5387 57.7733 35.144 57.656C34.76 57.5387 34.2907 57.48 33.736 57.48C32.9147 57.48 32.184 57.64 31.544 57.96C30.904 58.28 30.3973 58.728 30.024 59.304C29.6613 59.8693 29.48 60.5413 29.48 61.32C29.48 62.088 29.6613 62.76 30.024 63.336C30.3973 63.912 30.904 64.36 31.544 64.68C32.184 65 32.9147 65.16 33.736 65.16C34.2907 65.16 34.76 65.1013 35.144 64.984C35.5387 64.856 35.864 64.6907 36.12 64.488V62.136C35.9707 62.3707 35.7787 62.568 35.544 62.728C35.32 62.888 35.0693 63.0107 34.792 63.096C34.5253 63.1707 34.2427 63.208 33.944 63.208C33.5813 63.208 33.2507 63.1333 32.952 62.984C32.6533 62.824 32.4187 62.6053 32.248 62.328C32.0773 62.0507 31.992 61.7147 31.992 61.32ZM37.4026 61.32C37.4026 62.088 37.584 62.76 37.9466 63.336C38.32 63.912 38.8213 64.36 39.4506 64.68C40.0906 65 40.8106 65.16 41.6106 65.16C42.4213 65.16 43.1413 65 43.7706 64.68C44.4 64.36 44.896 63.912 45.2586 63.336C45.632 62.76 45.8186 62.088 45.8186 61.32C45.8186 60.5413 45.632 59.864 45.2586 59.288C44.896 58.712 44.4 58.264 43.7706 57.944C43.1413 57.624 42.4266 57.464 41.6266 57.464C40.8266 57.464 40.1066 57.624 39.4666 57.944C38.8266 58.264 38.32 58.712 37.9466 59.288C37.584 59.864 37.4026 60.5413 37.4026 61.32ZM39.8986 61.32C39.8986 60.936 39.9733 60.6053 40.1226 60.328C40.2826 60.0507 40.4906 59.8373 40.7466 59.688C41.0133 59.5387 41.3013 59.464 41.6106 59.464C41.9306 59.464 42.2186 59.5387 42.4746 59.688C42.7306 59.8373 42.9333 60.0507 43.0826 60.328C43.232 60.6053 43.3066 60.936 43.3066 61.32C43.3066 61.6933 43.232 62.0187 43.0826 62.296C42.9333 62.5733 42.7306 62.7867 42.4746 62.936C42.2186 63.0853 41.9306 63.16 41.6106 63.16C41.3013 63.16 41.0133 63.0853 40.7466 62.936C40.4906 62.7867 40.2826 62.5733 40.1226 62.296C39.9733 62.008 39.8986 61.6827 39.8986 61.32ZM52.0405 60.52V65H54.5685V60.264C54.5685 59.6773 54.4725 59.176 54.2805 58.76C54.0992 58.344 53.8112 58.024 53.4165 57.8C53.0325 57.576 52.5365 57.464 51.9285 57.464C51.3952 57.464 50.9418 57.576 50.5685 57.8C50.1952 58.024 49.9018 58.3387 49.6885 58.744V57.64H47.2405V65H49.6885V60.52C49.6885 60.2427 49.7418 60.0027 49.8485 59.8C49.9552 59.5867 50.1045 59.432 50.2965 59.336C50.4885 59.2293 50.7125 59.176 50.9685 59.176C51.2352 59.176 51.4432 59.2293 51.5925 59.336C51.7525 59.432 51.8645 59.5813 51.9285 59.784C52.0032 59.9867 52.0405 60.232 52.0405 60.52ZM55.5956 57.64V59.64H60.5236V57.64H55.5956ZM56.8916 55.08V65H59.2276V55.08H56.8916ZM63.4414 62.696C63.4414 62.504 63.4787 62.3493 63.5534 62.232C63.6387 62.1147 63.7667 62.024 63.9374 61.96C64.1187 61.896 64.348 61.864 64.6254 61.864C64.9987 61.864 65.3507 61.9173 65.6814 62.024C66.0227 62.12 66.3214 62.264 66.5774 62.456V61.384C66.46 61.2453 66.268 61.112 66.0014 60.984C65.7454 60.856 65.436 60.7547 65.0734 60.68C64.7107 60.5947 64.316 60.552 63.8894 60.552C63.2494 60.552 62.716 60.6427 62.2894 60.824C61.8734 60.9947 61.5534 61.256 61.3294 61.608C61.116 61.9493 61.0094 62.3547 61.0094 62.824C61.0094 63.3253 61.1267 63.752 61.3614 64.104C61.6067 64.456 61.9267 64.7227 62.3214 64.904C62.716 65.0747 63.148 65.16 63.6174 65.16C64.0867 65.16 64.524 65.08 64.9294 64.92C65.3454 64.7493 65.676 64.504 65.9214 64.184C66.1774 63.8533 66.3054 63.4533 66.3054 62.984L66.0494 62.024C66.0494 62.3653 65.9747 62.6533 65.8254 62.888C65.676 63.1227 65.484 63.2987 65.2494 63.416C65.0147 63.5333 64.7587 63.592 64.4814 63.592C64.2894 63.592 64.1134 63.5547 63.9534 63.48C63.7934 63.4053 63.6654 63.304 63.5694 63.176C63.484 63.048 63.4414 62.888 63.4414 62.696ZM62.3534 59.896C62.4494 59.832 62.6147 59.752 62.8494 59.656C63.0947 59.5493 63.3774 59.4587 63.6974 59.384C64.0174 59.3093 64.3427 59.272 64.6734 59.272C64.8974 59.272 65.0947 59.2933 65.2654 59.336C65.436 59.3787 65.58 59.448 65.6974 59.544C65.8254 59.6293 65.916 59.7467 65.9694 59.896C66.0227 60.0347 66.0494 60.1893 66.0494 60.36V65H68.3694V59.8C68.3694 59.2987 68.22 58.872 67.9214 58.52C67.6227 58.168 67.2174 57.9013 66.7054 57.72C66.204 57.528 65.6227 57.432 64.9614 57.432C64.268 57.432 63.628 57.5227 63.0414 57.704C62.4654 57.8747 61.964 58.0613 61.5374 58.264L62.3534 59.896ZM72.2264 61.32C72.2264 60.9573 72.3117 60.6373 72.4824 60.36C72.653 60.072 72.8877 59.8427 73.1864 59.672C73.485 59.5013 73.8157 59.416 74.1784 59.416C74.445 59.416 74.717 59.4587 74.9944 59.544C75.2717 59.6187 75.5277 59.736 75.7624 59.896C76.0077 60.056 76.205 60.2533 76.3544 60.488V58.12C76.0984 57.928 75.773 57.7733 75.3784 57.656C74.9944 57.5387 74.525 57.48 73.9704 57.48C73.149 57.48 72.4184 57.64 71.7784 57.96C71.1384 58.28 70.6317 58.728 70.2584 59.304C69.8957 59.8693 69.7144 60.5413 69.7144 61.32C69.7144 62.088 69.8957 62.76 70.2584 63.336C70.6317 63.912 71.1384 64.36 71.7784 64.68C72.4184 65 73.149 65.16 73.9704 65.16C74.525 65.16 74.9944 65.1013 75.3784 64.984C75.773 64.856 76.0984 64.6907 76.3544 64.488V62.136C76.205 62.3707 76.013 62.568 75.7784 62.728C75.5544 62.888 75.3037 63.0107 75.0264 63.096C74.7597 63.1707 74.477 63.208 74.1784 63.208C73.8157 63.208 73.485 63.1333 73.1864 62.984C72.8877 62.824 72.653 62.6053 72.4824 62.328C72.3117 62.0507 72.2264 61.7147 72.2264 61.32ZM77.205 57.64V59.64H82.133V57.64H77.205ZM78.501 55.08V65H80.837V55.08H78.501ZM87.2748 59.88C87.2748 59.5493 87.3281 59.2507 87.4348 58.984C87.5521 58.7173 87.6961 58.504 87.8668 58.344C88.0374 58.184 88.2241 58.104 88.4268 58.104C88.5761 58.104 88.7041 58.1413 88.8108 58.216C88.9281 58.28 89.0188 58.392 89.0828 58.552C89.1468 58.712 89.1788 58.9147 89.1788 59.16C89.1788 59.5333 89.1148 59.8533 88.9868 60.12C88.8694 60.376 88.7201 60.584 88.5388 60.744C88.3574 60.8933 88.1761 60.968 87.9948 60.968C87.8454 60.968 87.7121 60.9253 87.5948 60.84C87.4881 60.744 87.4081 60.6213 87.3548 60.472C87.3014 60.312 87.2748 60.1147 87.2748 59.88ZM85.3548 59.992C85.3548 60.5147 85.4401 60.968 85.6108 61.352C85.7921 61.736 86.0374 62.0293 86.3468 62.232C86.6668 62.424 87.0401 62.52 87.4668 62.52C87.8934 62.52 88.2934 62.392 88.6668 62.136C89.0508 61.8693 89.3548 61.48 89.5788 60.968C89.8134 60.4453 89.9308 59.816 89.9308 59.08C89.9308 58.6213 89.8454 58.2 89.6748 57.816C89.5041 57.432 89.2694 57.1227 88.9708 56.888C88.6828 56.6427 88.3468 56.52 87.9628 56.52C87.5468 56.52 87.1361 56.6587 86.7308 56.936C86.3361 57.2027 86.0054 57.592 85.7388 58.104C85.4828 58.616 85.3548 59.2453 85.3548 59.992ZM82.5068 59.88C82.5068 60.68 82.6241 61.416 82.8588 62.088C83.1041 62.76 83.4614 63.3467 83.9308 63.848C84.4001 64.3387 84.9761 64.7227 85.6588 65C86.3521 65.288 87.1521 65.432 88.0588 65.432C88.8801 65.432 89.5894 65.352 90.1868 65.192C90.7841 65.032 91.3228 64.8187 91.8028 64.552L91.2108 63.112C90.7521 63.3467 90.2881 63.5227 89.8188 63.64C89.3494 63.7573 88.8321 63.816 88.2668 63.816C87.3921 63.816 86.6614 63.656 86.0748 63.336C85.4988 63.016 85.0614 62.5627 84.7628 61.976C84.4641 61.3787 84.3148 60.68 84.3148 59.88C84.3148 59.176 84.4161 58.5307 84.6188 57.944C84.8214 57.3467 85.1201 56.8347 85.5148 56.408C85.9201 55.9813 86.4001 55.6453 86.9548 55.4C87.5201 55.1547 88.1548 55.032 88.8588 55.032C89.4454 55.032 89.9628 55.1333 90.4108 55.336C90.8694 55.5387 91.2481 55.8107 91.5468 56.152C91.8561 56.4827 92.0854 56.872 92.2348 57.32C92.3841 57.768 92.4588 58.248 92.4588 58.76C92.4588 59.24 92.4214 59.6347 92.3468 59.944C92.2721 60.2533 92.1761 60.4987 92.0588 60.68C91.9521 60.8507 91.8348 60.9733 91.7068 61.048C91.5788 61.112 91.4668 61.144 91.3708 61.144C91.2641 61.144 91.1788 61.1173 91.1148 61.064C91.0614 61.0107 91.0188 60.936 90.9868 60.84C90.9654 60.744 90.9548 60.632 90.9548 60.504C90.9548 60.44 90.9548 60.3653 90.9548 60.28C90.9654 60.1947 90.9761 60.1253 90.9868 60.072L91.4028 56.68H89.5308L89.1628 60.28L89.3708 60.76C89.3174 61.112 89.3654 61.432 89.5148 61.72C89.6748 62.008 89.8988 62.2427 90.1868 62.424C90.4854 62.5947 90.8108 62.68 91.1628 62.68C91.5361 62.68 91.9094 62.6107 92.2828 62.472C92.6561 62.3227 92.9868 62.0987 93.2748 61.8C93.5628 61.4907 93.7974 61.0853 93.9788 60.584C94.1601 60.0827 94.2508 59.4747 94.2508 58.76C94.2508 58.0987 94.1281 57.4533 93.8828 56.824C93.6374 56.1947 93.2854 55.624 92.8268 55.112C92.3681 54.6 91.8028 54.1947 91.1308 53.896C90.4694 53.5973 89.7121 53.448 88.8588 53.448C87.9414 53.448 87.0934 53.6133 86.3148 53.944C85.5468 54.2747 84.8801 54.7333 84.3148 55.32C83.7494 55.9067 83.3068 56.5893 82.9868 57.368C82.6668 58.1467 82.5068 58.984 82.5068 59.88ZM101.059 52.52V65H103.475V52.52H101.059ZM95.0433 61.32C95.0433 62.1413 95.2086 62.84 95.5393 63.416C95.8699 63.992 96.2966 64.4293 96.8193 64.728C97.3526 65.016 97.9233 65.16 98.5312 65.16C99.0006 65.16 99.4273 65.0747 99.8113 64.904C100.195 64.7227 100.531 64.4667 100.819 64.136C101.118 63.8053 101.342 63.4053 101.491 62.936C101.651 62.456 101.731 61.9173 101.731 61.32C101.731 60.7227 101.651 60.1893 101.491 59.72C101.342 59.24 101.123 58.8347 100.835 58.504C100.547 58.1733 100.206 57.9227 99.8113 57.752C99.4273 57.5707 99.0006 57.48 98.5312 57.48C97.9233 57.48 97.3526 57.6293 96.8193 57.928C96.2966 58.216 95.8699 58.648 95.5393 59.224C95.2086 59.7893 95.0433 60.488 95.0433 61.32ZM97.5873 61.32C97.5873 60.936 97.6673 60.6053 97.8273 60.328C97.9873 60.04 98.2006 59.8213 98.4673 59.672C98.7339 59.512 99.0273 59.432 99.3473 59.432C99.5499 59.432 99.7526 59.4747 99.9553 59.56C100.158 59.6453 100.339 59.768 100.499 59.928C100.67 60.088 100.803 60.2853 100.899 60.52C101.006 60.7547 101.059 61.0213 101.059 61.32C101.059 61.6187 101.006 61.8853 100.899 62.12C100.803 62.344 100.67 62.5413 100.499 62.712C100.339 62.872 100.158 62.9947 99.9553 63.08C99.7526 63.1653 99.5553 63.208 99.3633 63.208C99.0326 63.208 98.7339 63.1333 98.4673 62.984C98.2006 62.824 97.9873 62.6053 97.8273 62.328C97.6673 62.04 97.5873 61.704 97.5873 61.32ZM109.11 65.16C110.049 65.16 110.844 64.9787 111.494 64.616C112.145 64.2533 112.668 63.7093 113.062 62.984L110.886 62.456C110.716 62.776 110.476 63.016 110.166 63.176C109.857 63.336 109.489 63.416 109.062 63.416C108.7 63.416 108.385 63.3307 108.118 63.16C107.862 62.9893 107.67 62.7493 107.542 62.44C107.414 62.12 107.356 61.736 107.366 61.288C107.366 60.9147 107.398 60.5947 107.462 60.328C107.537 60.0507 107.644 59.8213 107.782 59.64C107.921 59.4587 108.092 59.3253 108.294 59.24C108.508 59.144 108.753 59.096 109.03 59.096C109.308 59.096 109.553 59.16 109.766 59.288C109.99 59.416 110.156 59.5973 110.262 59.832C110.369 60.056 110.422 60.3333 110.422 60.664C110.422 60.7387 110.406 60.8293 110.374 60.936C110.342 61.032 110.3 61.128 110.246 61.224L110.822 60.488H106.278V61.832H113.014C113.025 61.7467 113.03 61.6507 113.03 61.544C113.03 61.4373 113.03 61.3253 113.03 61.208C113.03 60.4187 112.876 59.7467 112.566 59.192C112.257 58.6373 111.809 58.216 111.222 57.928C110.636 57.6293 109.916 57.48 109.062 57.48C108.422 57.48 107.846 57.5707 107.334 57.752C106.822 57.9227 106.385 58.1733 106.022 58.504C105.66 58.8347 105.382 59.24 105.19 59.72C105.009 60.1893 104.918 60.7227 104.918 61.32C104.918 62.0987 105.089 62.776 105.43 63.352C105.772 63.928 106.252 64.376 106.87 64.696C107.5 65.0053 108.246 65.16 109.11 65.16ZM114.922 62.328L113.914 63.928C114.245 64.184 114.602 64.4187 114.986 64.632C115.37 64.8347 115.786 64.9947 116.234 65.112C116.693 65.24 117.189 65.304 117.722 65.304C118.309 65.304 118.805 65.2133 119.21 65.032C119.626 64.8507 119.941 64.584 120.154 64.232C120.378 63.88 120.49 63.4427 120.49 62.92C120.49 62.4613 120.389 62.0933 120.186 61.816C119.994 61.5387 119.738 61.3093 119.418 61.128C119.109 60.9467 118.757 60.7867 118.362 60.648C117.999 60.5093 117.69 60.3973 117.434 60.312C117.189 60.216 116.997 60.1147 116.858 60.008C116.73 59.9013 116.666 59.768 116.666 59.608C116.666 59.4693 116.725 59.3573 116.842 59.272C116.959 59.1867 117.119 59.144 117.322 59.144C117.653 59.144 118.021 59.24 118.426 59.432C118.831 59.624 119.178 59.864 119.466 60.152L120.33 58.568C120.053 58.3547 119.749 58.168 119.418 58.008C119.098 57.848 118.751 57.72 118.378 57.624C118.015 57.528 117.615 57.48 117.178 57.48C116.655 57.48 116.186 57.56 115.77 57.72C115.354 57.88 115.023 58.1147 114.778 58.424C114.543 58.7333 114.426 59.112 114.426 59.56C114.426 60.0293 114.527 60.4133 114.73 60.712C114.933 61.0107 115.194 61.2507 115.514 61.432C115.845 61.6133 116.175 61.768 116.506 61.896C116.911 62.0133 117.226 62.1253 117.45 62.232C117.674 62.328 117.834 62.4347 117.93 62.552C118.026 62.6587 118.074 62.7867 118.074 62.936C118.074 63.1173 118.015 63.2613 117.898 63.368C117.781 63.4747 117.599 63.528 117.354 63.528C117.183 63.528 116.981 63.496 116.746 63.432C116.511 63.3573 116.239 63.2347 115.93 63.064C115.631 62.8827 115.295 62.6373 114.922 62.328ZM121.675 54.888C121.675 55.272 121.808 55.5813 122.075 55.816C122.342 56.0507 122.678 56.168 123.083 56.168C123.478 56.168 123.808 56.0507 124.075 55.816C124.352 55.5813 124.491 55.272 124.491 54.888C124.491 54.504 124.352 54.1893 124.075 53.944C123.808 53.6987 123.478 53.576 123.083 53.576C122.678 53.576 122.342 53.6987 122.075 53.944C121.808 54.1893 121.675 54.504 121.675 54.888ZM121.899 57.64V65H124.251V57.64H121.899ZM125.985 65.528C126.049 66.1787 126.23 66.7493 126.529 67.24C126.827 67.7307 127.27 68.1147 127.857 68.392C128.443 68.68 129.201 68.824 130.129 68.824C130.865 68.824 131.537 68.6907 132.145 68.424C132.763 68.1573 133.254 67.7307 133.617 67.144C133.979 66.5573 134.161 65.7893 134.161 64.84V57.64H131.841V64.84C131.841 65.2773 131.755 65.6507 131.585 65.96C131.425 66.2693 131.206 66.4987 130.929 66.648C130.651 66.7973 130.342 66.872 130.001 66.872C129.691 66.872 129.414 66.824 129.169 66.728C128.934 66.632 128.747 66.4827 128.609 66.28C128.47 66.0773 128.379 65.8267 128.337 65.528H125.985ZM125.825 61.224C125.825 62.0453 125.99 62.7387 126.321 63.304C126.651 63.8587 127.078 64.2747 127.601 64.552C128.134 64.8293 128.705 64.968 129.312 64.968C129.771 64.968 130.193 64.888 130.577 64.728C130.971 64.5573 131.313 64.312 131.601 63.992C131.889 63.672 132.113 63.2827 132.273 62.824C132.443 62.3547 132.529 61.8213 132.529 61.224C132.529 60.6267 132.443 60.0987 132.273 59.64C132.113 59.1707 131.889 58.776 131.601 58.456C131.313 58.136 130.971 57.896 130.577 57.736C130.193 57.5653 129.771 57.48 129.312 57.48C128.705 57.48 128.134 57.6187 127.601 57.896C127.078 58.1733 126.651 58.5893 126.321 59.144C125.99 59.6987 125.825 60.392 125.825 61.224ZM128.369 61.224C128.369 60.84 128.449 60.5147 128.609 60.248C128.769 59.9813 128.982 59.7787 129.249 59.64C129.515 59.5013 129.809 59.432 130.129 59.432C130.331 59.432 130.534 59.4693 130.737 59.544C130.939 59.6187 131.121 59.7307 131.281 59.88C131.451 60.0293 131.585 60.216 131.681 60.44C131.787 60.664 131.841 60.9253 131.841 61.224C131.841 61.5227 131.787 61.784 131.681 62.008C131.585 62.2213 131.451 62.408 131.281 62.568C131.121 62.7173 130.939 62.8293 130.737 62.904C130.545 62.9787 130.342 63.016 130.129 63.016C129.809 63.016 129.51 62.9467 129.233 62.808C128.966 62.6693 128.753 62.4667 128.593 62.2C128.443 61.9333 128.369 61.608 128.369 61.224ZM140.806 60.52V65H143.334V60.264C143.334 59.6773 143.238 59.176 143.046 58.76C142.865 58.344 142.577 58.024 142.182 57.8C141.798 57.576 141.302 57.464 140.694 57.464C140.161 57.464 139.707 57.576 139.334 57.8C138.961 58.024 138.667 58.3387 138.454 58.744V57.64H136.006V65H138.454V60.52C138.454 60.2427 138.507 60.0027 138.614 59.8C138.721 59.5867 138.87 59.432 139.062 59.336C139.254 59.2293 139.478 59.176 139.734 59.176C140.001 59.176 140.209 59.2293 140.358 59.336C140.518 59.432 140.63 59.5813 140.694 59.784C140.769 59.9867 140.806 60.232 140.806 60.52ZM144.793 61.32C144.793 62.088 144.975 62.76 145.337 63.336C145.711 63.912 146.212 64.36 146.841 64.68C147.481 65 148.201 65.16 149.001 65.16C149.812 65.16 150.532 65 151.161 64.68C151.791 64.36 152.287 63.912 152.649 63.336C153.023 62.76 153.209 62.088 153.209 61.32C153.209 60.5413 153.023 59.864 152.649 59.288C152.287 58.712 151.791 58.264 151.161 57.944C150.532 57.624 149.817 57.464 149.017 57.464C148.217 57.464 147.497 57.624 146.857 57.944C146.217 58.264 145.711 58.712 145.337 59.288C144.975 59.864 144.793 60.5413 144.793 61.32ZM147.289 61.32C147.289 60.936 147.364 60.6053 147.513 60.328C147.673 60.0507 147.881 59.8373 148.137 59.688C148.404 59.5387 148.692 59.464 149.001 59.464C149.321 59.464 149.609 59.5387 149.865 59.688C150.121 59.8373 150.324 60.0507 150.473 60.328C150.623 60.6053 150.697 60.936 150.697 61.32C150.697 61.6933 150.623 62.0187 150.473 62.296C150.324 62.5733 150.121 62.7867 149.865 62.936C149.609 63.0853 149.321 63.16 149.001 63.16C148.692 63.16 148.404 63.0853 148.137 62.936C147.881 62.7867 147.673 62.5733 147.513 62.296C147.364 62.008 147.289 61.6827 147.289 61.32ZM153.978 63.928C153.978 64.3227 154.117 64.664 154.394 64.952C154.682 65.24 155.045 65.384 155.482 65.384C155.92 65.384 156.282 65.24 156.57 64.952C156.858 64.664 157.002 64.3227 157.002 63.928C157.002 63.512 156.858 63.16 156.57 62.872C156.282 62.5733 155.92 62.424 155.482 62.424C155.045 62.424 154.682 62.5733 154.394 62.872C154.117 63.16 153.978 63.512 153.978 63.928ZM161.055 61.32C161.055 60.9573 161.14 60.6373 161.311 60.36C161.481 60.072 161.716 59.8427 162.015 59.672C162.313 59.5013 162.644 59.416 163.007 59.416C163.273 59.416 163.545 59.4587 163.823 59.544C164.1 59.6187 164.356 59.736 164.591 59.896C164.836 60.056 165.033 60.2533 165.183 60.488V58.12C164.927 57.928 164.601 57.7733 164.207 57.656C163.823 57.5387 163.353 57.48 162.799 57.48C161.977 57.48 161.247 57.64 160.607 57.96C159.967 58.28 159.46 58.728 159.087 59.304C158.724 59.8693 158.543 60.5413 158.543 61.32C158.543 62.088 158.724 62.76 159.087 63.336C159.46 63.912 159.967 64.36 160.607 64.68C161.247 65 161.977 65.16 162.799 65.16C163.353 65.16 163.823 65.1013 164.207 64.984C164.601 64.856 164.927 64.6907 165.183 64.488V62.136C165.033 62.3707 164.841 62.568 164.607 62.728C164.383 62.888 164.132 63.0107 163.855 63.096C163.588 63.1707 163.305 63.208 163.007 63.208C162.644 63.208 162.313 63.1333 162.015 62.984C161.716 62.824 161.481 62.6053 161.311 62.328C161.14 62.0507 161.055 61.7147 161.055 61.32ZM166.465 61.32C166.465 62.088 166.646 62.76 167.009 63.336C167.382 63.912 167.884 64.36 168.513 64.68C169.153 65 169.873 65.16 170.673 65.16C171.484 65.16 172.204 65 172.833 64.68C173.462 64.36 173.958 63.912 174.321 63.336C174.694 62.76 174.881 62.088 174.881 61.32C174.881 60.5413 174.694 59.864 174.321 59.288C173.958 58.712 173.462 58.264 172.833 57.944C172.204 57.624 171.489 57.464 170.689 57.464C169.889 57.464 169.169 57.624 168.529 57.944C167.889 58.264 167.382 58.712 167.009 59.288C166.646 59.864 166.465 60.5413 166.465 61.32ZM168.961 61.32C168.961 60.936 169.036 60.6053 169.185 60.328C169.345 60.0507 169.553 59.8373 169.809 59.688C170.076 59.5387 170.364 59.464 170.673 59.464C170.993 59.464 171.281 59.5387 171.537 59.688C171.793 59.8373 171.996 60.0507 172.145 60.328C172.294 60.6053 172.369 60.936 172.369 61.32C172.369 61.6933 172.294 62.0187 172.145 62.296C171.996 62.5733 171.793 62.7867 171.537 62.936C171.281 63.0853 170.993 63.16 170.673 63.16C170.364 63.16 170.076 63.0853 169.809 62.936C169.553 62.7867 169.345 62.5733 169.185 62.296C169.036 62.008 168.961 61.6827 168.961 61.32Z" fill="white"/>
</svg>
