<svg width="174" height="69" viewBox="0 0 174 69" fill="none" xmlns="http://www.w3.org/2000/svg">
<path opacity="0.5" d="M1.2 1.8V13H4V1.8H1.2ZM5.184 13C6.10133 13 6.928 12.872 7.664 12.616C8.4 12.3493 9.02933 11.976 9.552 11.496C10.0853 11.0053 10.4907 10.4187 10.768 9.736C11.0453 9.04267 11.184 8.264 11.184 7.4C11.184 6.536 11.0453 5.76267 10.768 5.08C10.4907 4.38667 10.0853 3.8 9.552 3.32C9.02933 2.82933 8.4 2.456 7.664 2.2C6.928 1.93333 6.10133 1.8 5.184 1.8H2.976V4.216H5.104C5.53067 4.216 5.94133 4.26933 6.336 4.376C6.73067 4.48267 7.07733 4.65867 7.376 4.904C7.68533 5.14933 7.93067 5.48 8.112 5.896C8.29333 6.30133 8.384 6.80267 8.384 7.4C8.384 7.99733 8.29333 8.504 8.112 8.92C7.93067 9.32533 7.68533 9.65067 7.376 9.896C7.07733 10.1413 6.73067 10.3173 6.336 10.424C5.94133 10.5307 5.53067 10.584 5.104 10.584H2.976V13H5.184ZM16.4384 13.16C17.377 13.16 18.1717 12.9787 18.8224 12.616C19.473 12.2533 19.9957 11.7093 20.3904 10.984L18.2144 10.456C18.0437 10.776 17.8037 11.016 17.4944 11.176C17.185 11.336 16.817 11.416 16.3904 11.416C16.0277 11.416 15.713 11.3307 15.4464 11.16C15.1904 10.9893 14.9984 10.7493 14.8704 10.44C14.7424 10.12 14.6837 9.736 14.6944 9.288C14.6944 8.91467 14.7264 8.59467 14.7904 8.328C14.865 8.05067 14.9717 7.82133 15.1104 7.64C15.249 7.45867 15.4197 7.32533 15.6224 7.24C15.8357 7.144 16.081 7.096 16.3584 7.096C16.6357 7.096 16.881 7.16 17.0944 7.288C17.3184 7.416 17.4837 7.59733 17.5904 7.832C17.697 8.056 17.7504 8.33333 17.7504 8.664C17.7504 8.73867 17.7344 8.82933 17.7024 8.936C17.6704 9.032 17.6277 9.128 17.5744 9.224L18.1504 8.488H13.6064V9.832H20.3424C20.353 9.74667 20.3584 9.65067 20.3584 9.544C20.3584 9.43733 20.3584 9.32533 20.3584 9.208C20.3584 8.41867 20.2037 7.74667 19.8944 7.192C19.585 6.63733 19.137 6.216 18.5504 5.928C17.9637 5.62933 17.2437 5.48 16.3904 5.48C15.7504 5.48 15.1744 5.57067 14.6624 5.752C14.1504 5.92267 13.713 6.17333 13.3504 6.504C12.9877 6.83467 12.7104 7.24 12.5184 7.72C12.337 8.18933 12.2464 8.72267 12.2464 9.32C12.2464 10.0987 12.417 10.776 12.7584 11.352C13.0997 11.928 13.5797 12.376 14.1984 12.696C14.8277 13.0053 15.5744 13.16 16.4384 13.16ZM22.2503 10.328L21.2423 11.928C21.5729 12.184 21.9303 12.4187 22.3143 12.632C22.6983 12.8347 23.1143 12.9947 23.5623 13.112C24.0209 13.24 24.5169 13.304 25.0503 13.304C25.6369 13.304 26.1329 13.2133 26.5383 13.032C26.9543 12.8507 27.2689 12.584 27.4823 12.232C27.7063 11.88 27.8183 11.4427 27.8183 10.92C27.8183 10.4613 27.7169 10.0933 27.5143 9.816C27.3223 9.53867 27.0663 9.30933 26.7463 9.128C26.4369 8.94667 26.0849 8.78667 25.6903 8.648C25.3276 8.50933 25.0183 8.39733 24.7623 8.312C24.5169 8.216 24.3249 8.11467 24.1863 8.008C24.0583 7.90133 23.9943 7.768 23.9943 7.608C23.9943 7.46933 24.0529 7.35733 24.1703 7.272C24.2876 7.18667 24.4476 7.144 24.6503 7.144C24.9809 7.144 25.3489 7.24 25.7543 7.432C26.1596 7.624 26.5063 7.864 26.7943 8.152L27.6583 6.568C27.3809 6.35467 27.0769 6.168 26.7463 6.008C26.4263 5.848 26.0796 5.72 25.7063 5.624C25.3436 5.528 24.9436 5.48 24.5063 5.48C23.9836 5.48 23.5143 5.56 23.0983 5.72C22.6823 5.88 22.3516 6.11467 22.1063 6.424C21.8716 6.73333 21.7543 7.112 21.7543 7.56C21.7543 8.02933 21.8556 8.41333 22.0583 8.712C22.2609 9.01067 22.5223 9.25067 22.8423 9.432C23.1729 9.61333 23.5036 9.768 23.8343 9.896C24.2396 10.0133 24.5543 10.1253 24.7783 10.232C25.0023 10.328 25.1623 10.4347 25.2583 10.552C25.3543 10.6587 25.4023 10.7867 25.4023 10.936C25.4023 11.1173 25.3436 11.2613 25.2263 11.368C25.1089 11.4747 24.9276 11.528 24.6823 11.528C24.5116 11.528 24.3089 11.496 24.0743 11.432C23.8396 11.3573 23.5676 11.2347 23.2582 11.064C22.9596 10.8827 22.6236 10.6373 22.2503 10.328ZM29.0031 2.888C29.0031 3.272 29.1365 3.58133 29.4031 3.816C29.6698 4.05067 30.0058 4.168 30.4111 4.168C30.8058 4.168 31.1365 4.05067 31.4031 3.816C31.6805 3.58133 31.8191 3.272 31.8191 2.888C31.8191 2.504 31.6805 2.18933 31.4031 1.944C31.1365 1.69867 30.8058 1.576 30.4111 1.576C30.0058 1.576 29.6698 1.69867 29.4031 1.944C29.1365 2.18933 29.0031 2.504 29.0031 2.888ZM29.2271 5.64V13H31.5791V5.64H29.2271ZM33.3126 13.528C33.3766 14.1787 33.558 14.7493 33.8566 15.24C34.1553 15.7307 34.598 16.1147 35.1846 16.392C35.7713 16.68 36.5286 16.824 37.4566 16.824C38.1926 16.824 38.8646 16.6907 39.4726 16.424C40.0913 16.1573 40.582 15.7307 40.9446 15.144C41.3073 14.5573 41.4886 13.7893 41.4886 12.84V5.64H39.1686V12.84C39.1686 13.2773 39.0833 13.6507 38.9126 13.96C38.7526 14.2693 38.534 14.4987 38.2566 14.648C37.9793 14.7973 37.67 14.872 37.3286 14.872C37.0193 14.872 36.742 14.824 36.4966 14.728C36.262 14.632 36.0753 14.4827 35.9366 14.28C35.798 14.0773 35.7073 13.8267 35.6646 13.528H33.3126ZM33.1526 9.224C33.1526 10.0453 33.318 10.7387 33.6486 11.304C33.9793 11.8587 34.406 12.2747 34.9286 12.552C35.462 12.8293 36.0326 12.968 36.6406 12.968C37.0993 12.968 37.5206 12.888 37.9046 12.728C38.2993 12.5573 38.6406 12.312 38.9286 11.992C39.2166 11.672 39.4406 11.2827 39.6006 10.824C39.7713 10.3547 39.8566 9.82133 39.8566 9.224C39.8566 8.62667 39.7713 8.09867 39.6006 7.64C39.4406 7.17067 39.2166 6.776 38.9286 6.456C38.6406 6.136 38.2993 5.896 37.9046 5.736C37.5206 5.56533 37.0993 5.48 36.6406 5.48C36.0326 5.48 35.462 5.61867 34.9286 5.896C34.406 6.17333 33.9793 6.58933 33.6486 7.144C33.318 7.69867 33.1526 8.392 33.1526 9.224ZM35.6966 9.224C35.6966 8.84 35.7766 8.51467 35.9366 8.248C36.0966 7.98133 36.31 7.77867 36.5766 7.64C36.8433 7.50133 37.1366 7.432 37.4566 7.432C37.6593 7.432 37.862 7.46933 38.0646 7.544C38.2673 7.61867 38.4486 7.73067 38.6086 7.88C38.7793 8.02933 38.9126 8.216 39.0086 8.44C39.1153 8.664 39.1686 8.92533 39.1686 9.224C39.1686 9.52267 39.1153 9.784 39.0086 10.008C38.9126 10.2213 38.7793 10.408 38.6086 10.568C38.4486 10.7173 38.2673 10.8293 38.0646 10.904C37.8726 10.9787 37.67 11.016 37.4566 11.016C37.1366 11.016 36.838 10.9467 36.5606 10.808C36.294 10.6693 36.0806 10.4667 35.9206 10.2C35.7713 9.93333 35.6966 9.608 35.6966 9.224ZM48.1343 8.52V13H50.6623V8.264C50.6623 7.67733 50.5663 7.176 50.3743 6.76C50.1929 6.344 49.9049 6.024 49.5103 5.8C49.1263 5.576 48.6303 5.464 48.0223 5.464C47.4889 5.464 47.0356 5.576 46.6623 5.8C46.2889 6.024 45.9956 6.33867 45.7823 6.744V5.64H43.3343V13H45.7823V8.52C45.7823 8.24267 45.8356 8.00267 45.9423 7.8C46.0489 7.58667 46.1983 7.432 46.3903 7.336C46.5823 7.22933 46.8063 7.176 47.0623 7.176C47.3289 7.176 47.5369 7.22933 47.6863 7.336C47.8463 7.432 47.9583 7.58133 48.0223 7.784C48.0969 7.98667 48.1343 8.232 48.1343 8.52ZM52.1214 9.32C52.1214 10.088 52.3027 10.76 52.6654 11.336C53.0387 11.912 53.54 12.36 54.1694 12.68C54.8094 13 55.5294 13.16 56.3294 13.16C57.14 13.16 57.86 13 58.4894 12.68C59.1187 12.36 59.6147 11.912 59.9774 11.336C60.3507 10.76 60.5374 10.088 60.5374 9.32C60.5374 8.54133 60.3507 7.864 59.9774 7.288C59.6147 6.712 59.1187 6.264 58.4894 5.944C57.86 5.624 57.1454 5.464 56.3454 5.464C55.5454 5.464 54.8254 5.624 54.1854 5.944C53.5454 6.264 53.0387 6.712 52.6654 7.288C52.3027 7.864 52.1214 8.54133 52.1214 9.32ZM54.6174 9.32C54.6174 8.936 54.692 8.60533 54.8414 8.328C55.0014 8.05067 55.2094 7.83733 55.4654 7.688C55.732 7.53867 56.02 7.464 56.3294 7.464C56.6494 7.464 56.9374 7.53867 57.1934 7.688C57.4494 7.83733 57.652 8.05067 57.8014 8.328C57.9507 8.60533 58.0254 8.936 58.0254 9.32C58.0254 9.69333 57.9507 10.0187 57.8014 10.296C57.652 10.5733 57.4494 10.7867 57.1934 10.936C56.9374 11.0853 56.6494 11.16 56.3294 11.16C56.02 11.16 55.732 11.0853 55.4654 10.936C55.2094 10.7867 55.0014 10.5733 54.8414 10.296C54.692 10.008 54.6174 9.68267 54.6174 9.32ZM69.3321 7.4C69.3321 6.888 69.4175 6.43467 69.5881 6.04C69.7695 5.63467 70.0148 5.288 70.3241 5C70.6335 4.712 70.9908 4.49333 71.3961 4.344C71.8015 4.19467 72.2335 4.12 72.6921 4.12C73.2255 4.12 73.6948 4.18933 74.1001 4.328C74.5055 4.46667 74.8628 4.648 75.1721 4.872C75.4921 5.096 75.7748 5.34133 76.0201 5.608V2.664C75.5721 2.312 75.0815 2.04 74.5481 1.848C74.0255 1.64533 73.3535 1.544 72.5321 1.544C71.6255 1.544 70.7988 1.688 70.0521 1.976C69.3055 2.25333 68.6548 2.648 68.1001 3.16C67.5455 3.672 67.1188 4.29067 66.8201 5.016C66.5321 5.73067 66.3881 6.52533 66.3881 7.4C66.3881 8.27467 66.5321 9.07467 66.8201 9.8C67.1188 10.5147 67.5455 11.128 68.1001 11.64C68.6548 12.1413 69.3055 12.536 70.0521 12.824C70.7988 13.1013 71.6255 13.24 72.5321 13.24C73.3535 13.24 74.0255 13.1387 74.5481 12.936C75.0815 12.7333 75.5721 12.4667 76.0201 12.136V9.192C75.7748 9.45867 75.4921 9.704 75.1721 9.928C74.8628 10.152 74.5055 10.3333 74.1001 10.472C73.6948 10.6107 73.2255 10.68 72.6921 10.68C72.2335 10.68 71.8015 10.6053 71.3961 10.456C70.9908 10.3067 70.6335 10.088 70.3241 9.8C70.0148 9.512 69.7695 9.17067 69.5881 8.776C69.4175 8.37067 69.3321 7.912 69.3321 7.4ZM81.7352 13.16C82.6739 13.16 83.4686 12.9787 84.1193 12.616C84.7699 12.2533 85.2926 11.7093 85.6873 10.984L83.5113 10.456C83.3406 10.776 83.1006 11.016 82.7913 11.176C82.4819 11.336 82.1139 11.416 81.6873 11.416C81.3246 11.416 81.0099 11.3307 80.7433 11.16C80.4873 10.9893 80.2953 10.7493 80.1673 10.44C80.0393 10.12 79.9806 9.736 79.9913 9.288C79.9913 8.91467 80.0233 8.59467 80.0873 8.328C80.1619 8.05067 80.2686 7.82133 80.4073 7.64C80.5459 7.45867 80.7166 7.32533 80.9193 7.24C81.1326 7.144 81.3779 7.096 81.6553 7.096C81.9326 7.096 82.1779 7.16 82.3913 7.288C82.6153 7.416 82.7806 7.59733 82.8873 7.832C82.9939 8.056 83.0473 8.33333 83.0473 8.664C83.0473 8.73867 83.0313 8.82933 82.9993 8.936C82.9673 9.032 82.9246 9.128 82.8713 9.224L83.4473 8.488H78.9033V9.832H85.6393C85.6499 9.74667 85.6553 9.65067 85.6553 9.544C85.6553 9.43733 85.6553 9.32533 85.6553 9.208C85.6553 8.41867 85.5006 7.74667 85.1913 7.192C84.8819 6.63733 84.4339 6.216 83.8473 5.928C83.2606 5.62933 82.5406 5.48 81.6873 5.48C81.0473 5.48 80.4713 5.57067 79.9593 5.752C79.4473 5.92267 79.0099 6.17333 78.6473 6.504C78.2846 6.83467 78.0073 7.24 77.8153 7.72C77.6339 8.18933 77.5433 8.72267 77.5433 9.32C77.5433 10.0987 77.7139 10.776 78.0553 11.352C78.3966 11.928 78.8766 12.376 79.4953 12.696C80.1246 13.0053 80.8713 13.16 81.7352 13.16ZM91.9311 8.52V13H94.4591V8.264C94.4591 7.67733 94.3631 7.176 94.1711 6.76C93.9898 6.344 93.7018 6.024 93.3071 5.8C92.9231 5.576 92.4271 5.464 91.8191 5.464C91.2858 5.464 90.8325 5.576 90.4591 5.8C90.0858 6.024 89.7925 6.33867 89.5791 6.744V5.64H87.1311V13H89.5791V8.52C89.5791 8.24267 89.6325 8.00267 89.7391 7.8C89.8458 7.58667 89.9951 7.432 90.1871 7.336C90.3791 7.22933 90.6031 7.176 90.8591 7.176C91.1258 7.176 91.3338 7.22933 91.4831 7.336C91.6431 7.432 91.7551 7.58133 91.8191 7.784C91.8938 7.98667 91.9311 8.232 91.9311 8.52ZM95.4863 5.64V7.64H100.414V5.64H95.4863ZM96.7823 3.08V13H99.1183V3.08H96.7823ZM103.828 5.64H101.428V13H103.828V5.64ZM105.956 8.152L107.012 6.056C106.895 5.896 106.708 5.75733 106.452 5.64C106.207 5.52267 105.951 5.464 105.684 5.464C105.268 5.464 104.873 5.59733 104.5 5.864C104.137 6.13067 103.839 6.49333 103.604 6.952C103.369 7.41067 103.252 7.93333 103.252 8.52L103.828 9.368C103.828 9.016 103.876 8.71733 103.972 8.472C104.079 8.22667 104.223 8.04533 104.404 7.928C104.585 7.8 104.788 7.736 105.012 7.736C105.225 7.736 105.401 7.77333 105.54 7.848C105.689 7.92267 105.828 8.024 105.956 8.152ZM109.926 10.696C109.926 10.504 109.963 10.3493 110.038 10.232C110.123 10.1147 110.251 10.024 110.422 9.96C110.603 9.896 110.832 9.864 111.11 9.864C111.483 9.864 111.835 9.91733 112.166 10.024C112.507 10.12 112.806 10.264 113.062 10.456V9.384C112.944 9.24533 112.752 9.112 112.486 8.984C112.23 8.856 111.92 8.75467 111.558 8.68C111.195 8.59467 110.8 8.552 110.374 8.552C109.734 8.552 109.2 8.64267 108.774 8.824C108.358 8.99467 108.038 9.256 107.814 9.608C107.6 9.94933 107.494 10.3547 107.494 10.824C107.494 11.3253 107.611 11.752 107.846 12.104C108.091 12.456 108.411 12.7227 108.806 12.904C109.2 13.0747 109.632 13.16 110.102 13.16C110.571 13.16 111.008 13.08 111.414 12.92C111.83 12.7493 112.16 12.504 112.406 12.184C112.662 11.8533 112.79 11.4533 112.79 10.984L112.534 10.024C112.534 10.3653 112.459 10.6533 112.31 10.888C112.16 11.1227 111.968 11.2987 111.734 11.416C111.499 11.5333 111.243 11.592 110.966 11.592C110.774 11.592 110.598 11.5547 110.438 11.48C110.278 11.4053 110.15 11.304 110.054 11.176C109.968 11.048 109.926 10.888 109.926 10.696ZM108.838 7.896C108.934 7.832 109.099 7.752 109.334 7.656C109.579 7.54933 109.862 7.45867 110.182 7.384C110.502 7.30933 110.827 7.272 111.158 7.272C111.382 7.272 111.579 7.29333 111.75 7.336C111.92 7.37867 112.064 7.448 112.182 7.544C112.31 7.62933 112.4 7.74667 112.454 7.896C112.507 8.03467 112.534 8.18933 112.534 8.36V13H114.854V7.8C114.854 7.29867 114.704 6.872 114.406 6.52C114.107 6.168 113.702 5.90133 113.19 5.72C112.688 5.528 112.107 5.432 111.446 5.432C110.752 5.432 110.112 5.52267 109.526 5.704C108.95 5.87467 108.448 6.06133 108.022 6.264L108.838 7.896ZM116.647 0.52V13H119.095V0.52H116.647ZM128.236 7.4C128.236 6.89867 128.311 6.44533 128.46 6.04C128.609 5.624 128.823 5.272 129.1 4.984C129.388 4.68533 129.724 4.45067 130.108 4.28C130.503 4.10933 130.94 4.024 131.42 4.024C131.9 4.024 132.332 4.10933 132.716 4.28C133.111 4.45067 133.447 4.68533 133.724 4.984C134.001 5.28267 134.209 5.63467 134.348 6.04C134.487 6.44533 134.556 6.89867 134.556 7.4C134.556 7.89067 134.481 8.344 134.332 8.76C134.183 9.176 133.969 9.53333 133.692 9.832C133.415 10.12 133.084 10.3493 132.7 10.52C132.316 10.6907 131.884 10.776 131.404 10.776C130.935 10.776 130.503 10.6907 130.108 10.52C129.724 10.3493 129.388 10.1147 129.1 9.816C128.823 9.51733 128.609 9.16533 128.46 8.76C128.311 8.344 128.236 7.89067 128.236 7.4ZM125.388 7.4C125.388 8.264 125.532 9.05867 125.82 9.784C126.108 10.5093 126.524 11.1387 127.068 11.672C127.612 12.2053 128.252 12.6213 128.988 12.92C129.724 13.208 130.535 13.352 131.42 13.352C132.295 13.352 133.095 13.208 133.82 12.92C134.556 12.6213 135.196 12.2053 135.74 11.672C136.284 11.1387 136.705 10.5093 137.004 9.784C137.303 9.05867 137.452 8.264 137.452 7.4C137.452 6.536 137.297 5.74667 136.988 5.032C136.679 4.31733 136.252 3.69867 135.708 3.176C135.175 2.64267 134.54 2.23733 133.804 1.96C133.079 1.68267 132.284 1.544 131.42 1.544C130.567 1.544 129.772 1.68267 129.036 1.96C128.3 2.23733 127.655 2.63733 127.1 3.16C126.556 3.68267 126.135 4.30667 125.836 5.032C125.537 5.74667 125.388 6.536 125.388 7.4ZM138.257 5.64V7.64H143.281V5.64H138.257ZM143.041 2.84L144.001 1.064C143.894 0.957333 143.75 0.845333 143.569 0.728C143.398 0.599999 143.174 0.493333 142.897 0.407999C142.63 0.311999 142.315 0.263999 141.953 0.263999C141.355 0.263999 140.843 0.370666 140.417 0.584C140.001 0.797333 139.691 1.10133 139.489 1.496C139.286 1.89067 139.185 2.36533 139.185 2.92V13H141.505V3.544C141.505 3.27733 141.537 3.064 141.601 2.904C141.665 2.744 141.75 2.62667 141.857 2.552C141.974 2.47733 142.113 2.44 142.273 2.44C142.433 2.44 142.571 2.472 142.689 2.536C142.817 2.58933 142.934 2.69067 143.041 2.84ZM143.757 5.64V7.64H148.781V5.64H143.757ZM148.541 2.84L149.501 1.064C149.394 0.957333 149.25 0.845333 149.069 0.728C148.898 0.599999 148.674 0.493333 148.397 0.407999C148.13 0.311999 147.815 0.263999 147.453 0.263999C146.855 0.263999 146.343 0.370666 145.917 0.584C145.501 0.797333 145.191 1.10133 144.989 1.496C144.786 1.89067 144.685 2.36533 144.685 2.92V13H147.005V3.544C147.005 3.27733 147.037 3.064 147.101 2.904C147.165 2.744 147.25 2.62667 147.357 2.552C147.474 2.47733 147.613 2.44 147.773 2.44C147.933 2.44 148.071 2.472 148.189 2.536C148.317 2.58933 148.434 2.69067 148.541 2.84ZM149.769 2.888C149.769 3.272 149.902 3.58133 150.169 3.816C150.435 4.05067 150.771 4.168 151.177 4.168C151.571 4.168 151.902 4.05067 152.169 3.816C152.446 3.58133 152.585 3.272 152.585 2.888C152.585 2.504 152.446 2.18933 152.169 1.944C151.902 1.69867 151.571 1.576 151.177 1.576C150.771 1.576 150.435 1.69867 150.169 1.944C149.902 2.18933 149.769 2.504 149.769 2.888ZM149.993 5.64V13H152.345V5.64H149.993ZM156.398 9.32C156.398 8.95733 156.484 8.63733 156.654 8.36C156.825 8.072 157.06 7.84267 157.358 7.672C157.657 7.50133 157.988 7.416 158.35 7.416C158.617 7.416 158.889 7.45867 159.166 7.544C159.444 7.61867 159.7 7.736 159.934 7.896C160.18 8.056 160.377 8.25333 160.526 8.488V6.12C160.27 5.928 159.945 5.77333 159.55 5.656C159.166 5.53867 158.697 5.48 158.142 5.48C157.321 5.48 156.59 5.64 155.95 5.96C155.31 6.28 154.804 6.728 154.43 7.304C154.068 7.86933 153.886 8.54133 153.886 9.32C153.886 10.088 154.068 10.76 154.43 11.336C154.804 11.912 155.31 12.36 155.95 12.68C156.59 13 157.321 13.16 158.142 13.16C158.697 13.16 159.166 13.1013 159.55 12.984C159.945 12.856 160.27 12.6907 160.526 12.488V10.136C160.377 10.3707 160.185 10.568 159.95 10.728C159.726 10.888 159.476 11.0107 159.198 11.096C158.932 11.1707 158.649 11.208 158.35 11.208C157.988 11.208 157.657 11.1333 157.358 10.984C157.06 10.824 156.825 10.6053 156.654 10.328C156.484 10.0507 156.398 9.71467 156.398 9.32ZM166.001 13.16C166.94 13.16 167.734 12.9787 168.385 12.616C169.036 12.2533 169.558 11.7093 169.953 10.984L167.777 10.456C167.606 10.776 167.366 11.016 167.057 11.176C166.748 11.336 166.38 11.416 165.953 11.416C165.59 11.416 165.276 11.3307 165.009 11.16C164.753 10.9893 164.561 10.7493 164.433 10.44C164.305 10.12 164.246 9.736 164.257 9.288C164.257 8.91467 164.289 8.59467 164.353 8.328C164.428 8.05067 164.534 7.82133 164.673 7.64C164.812 7.45867 164.982 7.32533 165.185 7.24C165.398 7.144 165.644 7.096 165.921 7.096C166.198 7.096 166.444 7.16 166.657 7.288C166.881 7.416 167.046 7.59733 167.153 7.832C167.26 8.056 167.313 8.33333 167.313 8.664C167.313 8.73867 167.297 8.82933 167.265 8.936C167.233 9.032 167.19 9.128 167.137 9.224L167.713 8.488H163.169V9.832H169.905C169.916 9.74667 169.921 9.65067 169.921 9.544C169.921 9.43733 169.921 9.32533 169.921 9.208C169.921 8.41867 169.766 7.74667 169.457 7.192C169.148 6.63733 168.7 6.216 168.113 5.928C167.526 5.62933 166.806 5.48 165.953 5.48C165.313 5.48 164.737 5.57067 164.225 5.752C163.713 5.92267 163.276 6.17333 162.913 6.504C162.55 6.83467 162.273 7.24 162.081 7.72C161.9 8.18933 161.809 8.72267 161.809 9.32C161.809 10.0987 161.98 10.776 162.321 11.352C162.662 11.928 163.142 12.376 163.761 12.696C164.39 13.0053 165.137 13.16 166.001 13.16ZM4.048 33.48C4.592 33.48 5.08267 33.4053 5.52 33.256C5.968 33.1067 6.352 32.904 6.672 32.648C7.00267 32.3813 7.25333 32.0773 7.424 31.736C7.60533 31.384 7.696 31.0107 7.696 30.616C7.696 30.0827 7.568 29.592 7.312 29.144C7.06667 28.696 6.70933 28.3333 6.24 28.056C5.78133 27.7787 5.232 27.64 4.592 27.64C3.984 27.64 3.44 27.768 2.96 28.024C2.49067 28.2693 2.11733 28.6107 1.84 29.048C1.57333 29.4853 1.44 29.9973 1.44 30.584H2.736C2.736 30.2533 2.816 29.96 2.976 29.704C3.14667 29.448 3.37067 29.2453 3.648 29.096C3.936 28.9467 4.256 28.872 4.608 28.872C4.98133 28.872 5.29067 28.9467 5.536 29.096C5.792 29.2453 5.984 29.4587 6.112 29.736C6.24 30.0027 6.304 30.312 6.304 30.664C6.304 30.9307 6.25067 31.1813 6.144 31.416C6.048 31.6507 5.904 31.8587 5.712 32.04C5.52 32.2107 5.28533 32.3493 5.008 32.456C4.73067 32.552 4.41067 32.6 4.048 32.6V33.48ZM4.528 39.16C5.2 39.16 5.79733 39.032 6.32 38.776C6.84267 38.52 7.25333 38.1573 7.552 37.688C7.86133 37.2187 8.016 36.6693 8.016 36.04C8.016 35.4853 7.90933 35.0107 7.696 34.616C7.49333 34.2213 7.20533 33.9013 6.832 33.656C6.46933 33.4 6.048 33.2133 5.568 33.096C5.09867 32.9787 4.592 32.92 4.048 32.92V33.8C4.41067 33.8 4.74667 33.8427 5.056 33.928C5.36533 34.0133 5.63733 34.1467 5.872 34.328C6.10667 34.4987 6.288 34.7173 6.416 34.984C6.55467 35.24 6.624 35.5387 6.624 35.88C6.624 36.2853 6.53867 36.6373 6.368 36.936C6.19733 37.2347 5.952 37.4693 5.632 37.64C5.32267 37.8 4.95467 37.88 4.528 37.88C4.10133 37.88 3.72267 37.8 3.392 37.64C3.06133 37.48 2.8 37.2613 2.608 36.984C2.42667 36.7067 2.336 36.392 2.336 36.04H0.96C0.96 36.4773 1.04533 36.888 1.216 37.272C1.38667 37.6453 1.62667 37.976 1.936 38.264C2.24533 38.5413 2.61867 38.76 3.056 38.92C3.49333 39.08 3.984 39.16 4.528 39.16ZM10.0144 30.504C10.0144 30.9413 10.089 31.336 10.2384 31.688C10.3877 32.0293 10.5957 32.3227 10.8624 32.568C11.1397 32.8133 11.465 33 11.8384 33.128C12.2224 33.256 12.6437 33.32 13.1024 33.32C13.561 33.32 13.977 33.256 14.3504 33.128C14.7344 33 15.0597 32.8133 15.3264 32.568C15.6037 32.3227 15.817 32.0293 15.9664 31.688C16.1157 31.336 16.1904 30.9413 16.1904 30.504C16.1904 30.1093 16.1104 29.7413 15.9504 29.4C15.801 29.048 15.5877 28.744 15.3104 28.488C15.033 28.2213 14.7024 28.0133 14.3184 27.864C13.945 27.7147 13.5397 27.64 13.1024 27.64C12.5157 27.64 11.9877 27.768 11.5184 28.024C11.0597 28.28 10.6917 28.6267 10.4144 29.064C10.1477 29.4907 10.0144 29.9707 10.0144 30.504ZM11.3104 30.664C11.3104 30.312 11.385 29.9973 11.5344 29.72C11.6944 29.4427 11.9077 29.2293 12.1744 29.08C12.4517 28.92 12.761 28.84 13.1024 28.84C13.4544 28.84 13.7637 28.92 14.0304 29.08C14.297 29.2293 14.505 29.4427 14.6544 29.72C14.8144 29.9973 14.8944 30.312 14.8944 30.664C14.8944 31.016 14.809 31.3253 14.6384 31.592C14.4784 31.8587 14.2597 32.0667 13.9824 32.216C13.7157 32.3653 13.4224 32.44 13.1024 32.44C12.7824 32.44 12.4837 32.3653 12.2064 32.216C11.9397 32.0667 11.721 31.8587 11.5504 31.592C11.3904 31.3253 11.3104 31.016 11.3104 30.664ZM9.61438 35.96C9.61438 36.3973 9.69971 36.808 9.87038 37.192C10.0517 37.576 10.297 37.9173 10.6064 38.216C10.9264 38.5147 11.2944 38.7493 11.7104 38.92C12.137 39.08 12.601 39.16 13.1024 39.16C13.6037 39.16 14.0624 39.08 14.4784 38.92C14.905 38.7493 15.273 38.5147 15.5824 38.216C15.9024 37.9173 16.1477 37.576 16.3184 37.192C16.4997 36.808 16.5904 36.3973 16.5904 35.96C16.5904 35.448 16.4944 34.9947 16.3024 34.6C16.121 34.1947 15.865 33.8587 15.5344 33.592C15.2144 33.3147 14.841 33.1067 14.4144 32.968C13.9984 32.8293 13.561 32.76 13.1024 32.76C12.6437 32.76 12.201 32.8293 11.7744 32.968C11.3584 33.1067 10.985 33.3147 10.6544 33.592C10.3344 33.8587 10.0784 34.1947 9.88638 34.6C9.70504 34.9947 9.61438 35.448 9.61438 35.96ZM10.9104 35.8C10.9104 35.3947 11.0117 35.032 11.2144 34.712C11.4277 34.3813 11.6997 34.12 12.0304 33.928C12.3717 33.736 12.729 33.64 13.1024 33.64C13.4757 33.64 13.8277 33.736 14.1584 33.928C14.4997 34.12 14.7717 34.3813 14.9744 34.712C15.1877 35.032 15.2944 35.3947 15.2944 35.8C15.2944 36.2587 15.1877 36.648 14.9744 36.968C14.7717 37.288 14.4997 37.5333 14.1584 37.704C13.8277 37.8747 13.4757 37.96 13.1024 37.96C12.729 37.96 12.3717 37.8747 12.0304 37.704C11.6997 37.5333 11.4277 37.288 11.2144 36.968C11.0117 36.648 10.9104 36.2587 10.9104 35.8ZM18.7488 30.504C18.7488 30.9413 18.8234 31.336 18.9728 31.688C19.1221 32.0293 19.3301 32.3227 19.5968 32.568C19.8741 32.8133 20.1994 33 20.5728 33.128C20.9568 33.256 21.3781 33.32 21.8368 33.32C22.2954 33.32 22.7114 33.256 23.0848 33.128C23.4688 33 23.7941 32.8133 24.0608 32.568C24.3381 32.3227 24.5514 32.0293 24.7008 31.688C24.8501 31.336 24.9248 30.9413 24.9248 30.504C24.9248 30.1093 24.8448 29.7413 24.6848 29.4C24.5354 29.048 24.3221 28.744 24.0448 28.488C23.7674 28.2213 23.4368 28.0133 23.0528 27.864C22.6794 27.7147 22.2741 27.64 21.8368 27.64C21.2501 27.64 20.7221 27.768 20.2528 28.024C19.7941 28.28 19.4261 28.6267 19.1488 29.064C18.8821 29.4907 18.7488 29.9707 18.7488 30.504ZM20.0448 30.664C20.0448 30.312 20.1194 29.9973 20.2688 29.72C20.4288 29.4427 20.6421 29.2293 20.9088 29.08C21.1861 28.92 21.4954 28.84 21.8368 28.84C22.1888 28.84 22.4981 28.92 22.7648 29.08C23.0314 29.2293 23.2394 29.4427 23.3888 29.72C23.5488 29.9973 23.6288 30.312 23.6288 30.664C23.6288 31.016 23.5434 31.3253 23.3728 31.592C23.2128 31.8587 22.9941 32.0667 22.7168 32.216C22.4501 32.3653 22.1568 32.44 21.8368 32.44C21.5168 32.44 21.2181 32.3653 20.9408 32.216C20.6741 32.0667 20.4554 31.8587 20.2848 31.592C20.1248 31.3253 20.0448 31.016 20.0448 30.664ZM18.3488 35.96C18.3488 36.3973 18.4341 36.808 18.6048 37.192C18.7861 37.576 19.0314 37.9173 19.3408 38.216C19.6608 38.5147 20.0288 38.7493 20.4448 38.92C20.8714 39.08 21.3354 39.16 21.8368 39.16C22.3381 39.16 22.7968 39.08 23.2128 38.92C23.6394 38.7493 24.0074 38.5147 24.3168 38.216C24.6368 37.9173 24.8821 37.576 25.0528 37.192C25.2341 36.808 25.3248 36.3973 25.3248 35.96C25.3248 35.448 25.2288 34.9947 25.0368 34.6C24.8554 34.1947 24.5994 33.8587 24.2688 33.592C23.9488 33.3147 23.5754 33.1067 23.1488 32.968C22.7328 32.8293 22.2954 32.76 21.8368 32.76C21.3781 32.76 20.9354 32.8293 20.5088 32.968C20.0928 33.1067 19.7194 33.3147 19.3888 33.592C19.0688 33.8587 18.8128 34.1947 18.6208 34.6C18.4394 34.9947 18.3488 35.448 18.3488 35.96ZM19.6448 35.8C19.6448 35.3947 19.7461 35.032 19.9488 34.712C20.1621 34.3813 20.4341 34.12 20.7648 33.928C21.1061 33.736 21.4634 33.64 21.8368 33.64C22.2101 33.64 22.5621 33.736 22.8928 33.928C23.2341 34.12 23.5061 34.3813 23.7088 34.712C23.9221 35.032 24.0288 35.3947 24.0288 35.8C24.0288 36.2587 23.9221 36.648 23.7088 36.968C23.5061 37.288 23.2341 37.5333 22.8928 37.704C22.5621 37.8747 22.2101 37.96 21.8368 37.96C21.4634 37.96 21.1061 37.8747 20.7648 37.704C20.4341 37.5333 20.1621 37.288 19.9488 36.968C19.7461 36.648 19.6448 36.2587 19.6448 35.8ZM28.2991 35.32C28.2991 34.808 28.4058 34.3547 28.6191 33.96C28.8431 33.5547 29.1418 33.24 29.5151 33.016C29.8991 32.792 30.3311 32.68 30.8111 32.68C31.2911 32.68 31.7178 32.792 32.0911 33.016C32.4751 33.24 32.7738 33.5547 32.9871 33.96C33.2111 34.3547 33.3231 34.808 33.3231 35.32C33.3231 35.832 33.2111 36.2853 32.9871 36.68C32.7738 37.064 32.4751 37.368 32.0911 37.592C31.7178 37.816 31.2911 37.928 30.8111 37.928C30.3311 37.928 29.8991 37.816 29.5151 37.592C29.1418 37.368 28.8431 37.064 28.6191 36.68C28.4058 36.2853 28.2991 35.832 28.2991 35.32ZM31.4831 27.8L27.7071 33C27.4938 33.2987 27.3231 33.6453 27.1951 34.04C27.0671 34.4347 27.0031 34.8613 27.0031 35.32C27.0031 36.088 27.1685 36.76 27.4991 37.336C27.8405 37.912 28.2991 38.36 28.8751 38.68C29.4511 39 30.0965 39.16 30.8111 39.16C31.5365 39.16 32.1818 39 32.7471 38.68C33.3231 38.36 33.7765 37.912 34.1071 37.336C34.4485 36.76 34.6191 36.088 34.6191 35.32C34.6191 34.808 34.5338 34.3333 34.3631 33.896C34.1925 33.448 33.9525 33.0587 33.6431 32.728C33.3445 32.3973 32.9925 32.1413 32.5871 31.96C32.1925 31.7787 31.7658 31.688 31.3071 31.688C30.9445 31.688 30.6191 31.7307 30.3311 31.816C30.0538 31.9013 29.8085 32.0773 29.5951 32.344L29.6911 32.424L33.1951 27.8H31.4831ZM51.4668 36.04L48.1388 27.24L44.8748 36.04L41.8988 27.8H40.3788L44.7788 39.56L48.1388 30.856L51.4988 39.56L55.8988 27.8H54.3788L51.4668 36.04ZM58.8293 39.16C59.6186 39.16 60.3013 39.0053 60.8773 38.696C61.4639 38.376 61.9493 37.9067 62.3333 37.288L61.2933 36.632C61.0266 37.08 60.7013 37.416 60.3173 37.64C59.9333 37.8533 59.4906 37.96 58.9893 37.96C58.4879 37.96 58.0613 37.8533 57.7093 37.64C57.3573 37.4267 57.0906 37.1173 56.9093 36.712C56.7279 36.3067 56.6373 35.816 56.6373 35.24C56.6373 34.824 56.6906 34.4507 56.7973 34.12C56.9039 33.7893 57.0586 33.512 57.2613 33.288C57.4639 33.064 57.7093 32.8933 57.9973 32.776C58.2959 32.6587 58.6266 32.6 58.9893 32.6C59.4053 32.6 59.7679 32.6907 60.0773 32.872C60.3866 33.0533 60.6266 33.304 60.7973 33.624C60.9786 33.944 61.0693 34.3227 61.0693 34.76C61.0693 34.8347 61.0533 34.9307 61.0213 35.048C60.9893 35.1547 60.9573 35.2347 60.9253 35.288L61.4373 34.552H56.1573V35.64H62.4453C62.4453 35.6187 62.4453 35.5707 62.4453 35.496C62.4559 35.4107 62.4613 35.3307 62.4613 35.256C62.4613 34.4773 62.3226 33.8053 62.0453 33.24C61.7679 32.6747 61.3679 32.2427 60.8453 31.944C60.3333 31.6347 59.7146 31.48 58.9893 31.48C58.4453 31.48 57.9493 31.576 57.5013 31.768C57.0533 31.9493 56.6693 32.2107 56.3493 32.552C56.0293 32.8827 55.7786 33.2827 55.5973 33.752C55.4266 34.2213 55.3413 34.744 55.3413 35.32C55.3413 36.0773 55.4853 36.744 55.7733 37.32C56.0719 37.896 56.4826 38.3493 57.0053 38.68C57.5386 39 58.1466 39.16 58.8293 39.16ZM64.2156 26.52V39H65.4956V26.52H64.2156ZM67.9031 26.52V39H69.1831V26.52H67.9031ZM71.5906 28.6C71.5906 28.8347 71.676 29.0427 71.8466 29.224C72.028 29.3947 72.236 29.48 72.4706 29.48C72.716 29.48 72.924 29.3947 73.0946 29.224C73.2653 29.0427 73.3506 28.8347 73.3506 28.6C73.3506 28.3547 73.2653 28.1467 73.0946 27.976C72.924 27.8053 72.716 27.72 72.4706 27.72C72.236 27.72 72.028 27.8053 71.8466 27.976C71.676 28.1467 71.5906 28.3547 71.5906 28.6ZM71.8306 31.64V39H73.1106V31.64H71.8306ZM80.4669 34.52V39H81.7469V34.36C81.7469 33.7627 81.6402 33.2507 81.4269 32.824C81.2242 32.3973 80.9362 32.0667 80.5629 31.832C80.1895 31.5973 79.7415 31.48 79.2189 31.48C78.7389 31.48 78.3122 31.5867 77.9389 31.8C77.5762 32.0133 77.2722 32.344 77.0269 32.792V31.64H75.7469V39H77.0269V34.52C77.0269 34.1573 77.1015 33.8373 77.2509 33.56C77.4109 33.2827 77.6295 33.0693 77.9069 32.92C78.1949 32.76 78.5255 32.68 78.8989 32.68C79.2402 32.68 79.5282 32.7493 79.7629 32.888C79.9975 33.0267 80.1735 33.2347 80.2909 33.512C80.4082 33.7787 80.4669 34.1147 80.4669 34.52ZM83.6571 39.48C83.6571 40.1093 83.8118 40.664 84.1211 41.144C84.4305 41.6347 84.8571 42.0133 85.4011 42.28C85.9558 42.5467 86.5905 42.68 87.3051 42.68C87.9238 42.68 88.5105 42.536 89.0651 42.248C89.6198 41.96 90.0731 41.528 90.4251 40.952C90.7771 40.3867 90.9531 39.6827 90.9531 38.84V31.64H89.6731V38.84C89.6731 39.4587 89.5505 39.96 89.3051 40.344C89.0705 40.7387 88.7718 41.0267 88.4091 41.208C88.0465 41.3893 87.6785 41.48 87.3051 41.48C86.8251 41.48 86.4091 41.384 86.0571 41.192C85.7051 41.0107 85.4331 40.7653 85.2411 40.456C85.0491 40.1573 84.9531 39.832 84.9531 39.48H83.6571ZM83.5131 35.32C83.5131 36.1093 83.6785 36.792 84.0091 37.368C84.3398 37.944 84.7825 38.3867 85.3371 38.696C85.8918 39.0053 86.4998 39.16 87.1611 39.16C87.6198 39.16 88.0358 39.0747 88.4091 38.904C88.7931 38.7227 89.1185 38.4667 89.3851 38.136C89.6625 37.8053 89.8758 37.4053 90.0251 36.936C90.1745 36.456 90.2491 35.9173 90.2491 35.32C90.2491 34.7227 90.1745 34.1893 90.0251 33.72C89.8758 33.24 89.6625 32.8347 89.3851 32.504C89.1185 32.1733 88.7931 31.9227 88.4091 31.752C88.0358 31.5707 87.6198 31.48 87.1611 31.48C86.4998 31.48 85.8918 31.6347 85.3371 31.944C84.7825 32.2533 84.3398 32.696 84.0091 33.272C83.6785 33.8373 83.5131 34.52 83.5131 35.32ZM84.8091 35.32C84.8091 34.7547 84.9211 34.2747 85.1451 33.88C85.3798 33.4853 85.6891 33.1867 86.0731 32.984C86.4571 32.7813 86.8731 32.68 87.3211 32.68C87.5985 32.68 87.8758 32.7387 88.1531 32.856C88.4305 32.9733 88.6811 33.144 88.9051 33.368C89.1398 33.592 89.3265 33.8693 89.4651 34.2C89.6038 34.52 89.6731 34.8933 89.6731 35.32C89.6731 35.7467 89.6038 36.1253 89.4651 36.456C89.3265 36.776 89.1398 37.048 88.9051 37.272C88.6811 37.496 88.4305 37.6667 88.1531 37.784C87.8758 37.9013 87.5985 37.96 87.3211 37.96C86.8731 37.96 86.4571 37.8587 86.0731 37.656C85.6891 37.4533 85.3798 37.1547 85.1451 36.76C84.9211 36.3653 84.8091 35.8853 84.8091 35.32ZM92.1581 31.64V32.84H95.8381V31.64H92.1581ZM93.3581 29.08V39H94.6381V29.08H93.3581ZM96.4819 35.32C96.4819 36.056 96.6472 36.7173 96.9779 37.304C97.3192 37.88 97.7779 38.3333 98.3539 38.664C98.9299 38.9947 99.5752 39.16 100.29 39.16C101.015 39.16 101.661 38.9947 102.226 38.664C102.802 38.3333 103.255 37.88 103.586 37.304C103.927 36.7173 104.098 36.056 104.098 35.32C104.098 34.5733 103.927 33.912 103.586 33.336C103.255 32.76 102.802 32.3067 102.226 31.976C101.661 31.6453 101.015 31.48 100.29 31.48C99.5752 31.48 98.9299 31.6453 98.3539 31.976C97.7779 32.3067 97.3192 32.76 96.9779 33.336C96.6472 33.912 96.4819 34.5733 96.4819 35.32ZM97.7779 35.32C97.7779 34.808 97.8845 34.3547 98.0979 33.96C98.3219 33.5547 98.6205 33.24 98.9939 33.016C99.3779 32.792 99.8099 32.68 100.29 32.68C100.77 32.68 101.197 32.792 101.57 33.016C101.954 33.24 102.253 33.5547 102.466 33.96C102.69 34.3547 102.802 34.808 102.802 35.32C102.802 35.832 102.69 36.2853 102.466 36.68C102.253 37.0747 101.954 37.3893 101.57 37.624C101.197 37.848 100.77 37.96 100.29 37.96C99.8099 37.96 99.3779 37.848 98.9939 37.624C98.6205 37.3893 98.3219 37.0747 98.0979 36.68C97.8845 36.2853 97.7779 35.832 97.7779 35.32ZM110.576 34.52V39H111.856V34.36C111.856 33.7627 111.75 33.2507 111.536 32.824C111.334 32.3973 111.046 32.0667 110.672 31.832C110.299 31.5973 109.851 31.48 109.328 31.48C108.848 31.48 108.422 31.5867 108.048 31.8C107.686 32.0133 107.382 32.344 107.136 32.792V31.64H105.856V39H107.136V34.52C107.136 34.1573 107.211 33.8373 107.36 33.56C107.52 33.2827 107.739 33.0693 108.016 32.92C108.304 32.76 108.635 32.68 109.008 32.68C109.35 32.68 109.638 32.7493 109.872 32.888C110.107 33.0267 110.283 33.2347 110.4 33.512C110.518 33.7787 110.576 34.1147 110.576 34.52ZM119.555 35.608L118.467 36.344C118.713 36.8347 119.027 37.2987 119.411 37.736C119.806 38.1627 120.259 38.5093 120.771 38.776C121.294 39.032 121.859 39.16 122.467 39.16C122.915 39.16 123.342 39.0853 123.747 38.936C124.163 38.7867 124.531 38.5733 124.851 38.296C125.182 38.0187 125.438 37.6827 125.619 37.288C125.811 36.8933 125.907 36.4507 125.907 35.96C125.907 35.448 125.817 35.0107 125.635 34.648C125.454 34.2747 125.219 33.96 124.931 33.704C124.654 33.4373 124.35 33.2187 124.019 33.048C123.689 32.8773 123.374 32.7387 123.075 32.632C122.585 32.4613 122.169 32.2907 121.827 32.12C121.497 31.9493 121.23 31.7733 121.027 31.592C120.835 31.4107 120.697 31.2187 120.611 31.016C120.526 30.8133 120.483 30.5947 120.483 30.36C120.483 30.1147 120.542 29.8853 120.659 29.672C120.787 29.4587 120.979 29.2827 121.235 29.144C121.491 29.0053 121.822 28.936 122.227 28.936C122.665 28.936 123.033 29.0213 123.331 29.192C123.641 29.3627 123.902 29.5813 124.115 29.848C124.329 30.1147 124.505 30.3867 124.643 30.664L125.811 29.992C125.63 29.5973 125.379 29.224 125.059 28.872C124.739 28.5093 124.35 28.216 123.891 27.992C123.443 27.7573 122.915 27.64 122.307 27.64C121.678 27.64 121.118 27.768 120.627 28.024C120.137 28.2693 119.753 28.6107 119.475 29.048C119.198 29.4853 119.059 29.9813 119.059 30.536C119.059 31.048 119.155 31.48 119.347 31.832C119.55 32.184 119.806 32.4827 120.115 32.728C120.425 32.9627 120.75 33.16 121.091 33.32C121.433 33.4693 121.742 33.592 122.019 33.688C122.446 33.8373 122.846 34.008 123.219 34.2C123.603 34.3813 123.913 34.6213 124.147 34.92C124.382 35.2187 124.499 35.6187 124.499 36.12C124.499 36.4613 124.414 36.7653 124.243 37.032C124.083 37.2987 123.854 37.5067 123.555 37.656C123.267 37.8053 122.921 37.88 122.515 37.88C122.067 37.88 121.667 37.784 121.315 37.592C120.963 37.4 120.643 37.1333 120.355 36.792C120.078 36.4507 119.811 36.056 119.555 35.608ZM126.705 31.64V32.84H130.385V31.64H126.705ZM127.905 29.08V39H129.185V29.08H127.905ZM132.949 31.64H131.669V39H132.949V31.64ZM135.173 33.048L135.877 31.992C135.685 31.7893 135.471 31.656 135.237 31.592C135.013 31.5173 134.767 31.48 134.501 31.48C134.159 31.48 133.823 31.6133 133.493 31.88C133.162 32.1467 132.89 32.5093 132.677 32.968C132.474 33.416 132.373 33.9333 132.373 34.52H132.949C132.949 34.168 132.981 33.8533 133.045 33.576C133.119 33.2987 133.247 33.08 133.429 32.92C133.61 32.76 133.861 32.68 134.181 32.68C134.394 32.68 134.57 32.712 134.709 32.776C134.847 32.8293 135.002 32.92 135.173 33.048ZM139.767 39.16C140.556 39.16 141.239 39.0053 141.815 38.696C142.401 38.376 142.887 37.9067 143.271 37.288L142.231 36.632C141.964 37.08 141.639 37.416 141.255 37.64C140.871 37.8533 140.428 37.96 139.927 37.96C139.425 37.96 138.999 37.8533 138.647 37.64C138.295 37.4267 138.028 37.1173 137.847 36.712C137.665 36.3067 137.575 35.816 137.575 35.24C137.575 34.824 137.628 34.4507 137.735 34.12C137.841 33.7893 137.996 33.512 138.199 33.288C138.401 33.064 138.647 32.8933 138.935 32.776C139.233 32.6587 139.564 32.6 139.927 32.6C140.343 32.6 140.705 32.6907 141.015 32.872C141.324 33.0533 141.564 33.304 141.735 33.624C141.916 33.944 142.007 34.3227 142.007 34.76C142.007 34.8347 141.991 34.9307 141.959 35.048C141.927 35.1547 141.895 35.2347 141.863 35.288L142.375 34.552H137.095V35.64H143.383C143.383 35.6187 143.383 35.5707 143.383 35.496C143.393 35.4107 143.399 35.3307 143.399 35.256C143.399 34.4773 143.26 33.8053 142.983 33.24C142.705 32.6747 142.305 32.2427 141.783 31.944C141.271 31.6347 140.652 31.48 139.927 31.48C139.383 31.48 138.887 31.576 138.439 31.768C137.991 31.9493 137.607 32.2107 137.287 32.552C136.967 32.8827 136.716 33.2827 136.535 33.752C136.364 34.2213 136.279 34.744 136.279 35.32C136.279 36.0773 136.423 36.744 136.711 37.32C137.009 37.896 137.42 38.3493 137.943 38.68C138.476 39 139.084 39.16 139.767 39.16ZM148.001 39.16C148.79 39.16 149.473 39.0053 150.049 38.696C150.636 38.376 151.121 37.9067 151.505 37.288L150.465 36.632C150.198 37.08 149.873 37.416 149.489 37.64C149.105 37.8533 148.662 37.96 148.161 37.96C147.66 37.96 147.233 37.8533 146.881 37.64C146.529 37.4267 146.262 37.1173 146.081 36.712C145.9 36.3067 145.809 35.816 145.809 35.24C145.809 34.824 145.862 34.4507 145.969 34.12C146.076 33.7893 146.23 33.512 146.433 33.288C146.636 33.064 146.881 32.8933 147.169 32.776C147.468 32.6587 147.798 32.6 148.161 32.6C148.577 32.6 148.94 32.6907 149.249 32.872C149.558 33.0533 149.798 33.304 149.969 33.624C150.15 33.944 150.241 34.3227 150.241 34.76C150.241 34.8347 150.225 34.9307 150.193 35.048C150.161 35.1547 150.129 35.2347 150.097 35.288L150.609 34.552H145.329V35.64H151.617C151.617 35.6187 151.617 35.5707 151.617 35.496C151.628 35.4107 151.633 35.3307 151.633 35.256C151.633 34.4773 151.494 33.8053 151.217 33.24C150.94 32.6747 150.54 32.2427 150.017 31.944C149.505 31.6347 148.886 31.48 148.161 31.48C147.617 31.48 147.121 31.576 146.673 31.768C146.225 31.9493 145.841 32.2107 145.521 32.552C145.201 32.8827 144.95 33.2827 144.769 33.752C144.598 34.2213 144.513 34.744 144.513 35.32C144.513 36.0773 144.657 36.744 144.945 37.32C145.244 37.896 145.654 38.3493 146.177 38.68C146.71 39 147.318 39.16 148.001 39.16ZM152.268 31.64V32.84H155.948V31.64H152.268ZM153.468 29.08V39H154.748V29.08H153.468ZM0.16 55.08H3.04V65H4.4V55.08H7.28V53.8H0.16V55.08ZM6.40375 61.32C6.40375 62.056 6.56908 62.7173 6.89975 63.304C7.24108 63.88 7.69975 64.3333 8.27575 64.664C8.85175 64.9947 9.49708 65.16 10.2118 65.16C10.9371 65.16 11.5824 64.9947 12.1478 64.664C12.7238 64.3333 13.1771 63.88 13.5078 63.304C13.8491 62.7173 14.0198 62.056 14.0198 61.32C14.0198 60.5733 13.8491 59.912 13.5078 59.336C13.1771 58.76 12.7238 58.3067 12.1478 57.976C11.5824 57.6453 10.9371 57.48 10.2118 57.48C9.49708 57.48 8.85175 57.6453 8.27575 57.976C7.69975 58.3067 7.24108 58.76 6.89975 59.336C6.56908 59.912 6.40375 60.5733 6.40375 61.32ZM7.69975 61.32C7.69975 60.808 7.80642 60.3547 8.01975 59.96C8.24375 59.5547 8.54242 59.24 8.91575 59.016C9.29975 58.792 9.73175 58.68 10.2118 58.68C10.6918 58.68 11.1184 58.792 11.4918 59.016C11.8758 59.24 12.1744 59.5547 12.3878 59.96C12.6118 60.3547 12.7238 60.808 12.7238 61.32C12.7238 61.832 12.6118 62.2853 12.3878 62.68C12.1744 63.0747 11.8758 63.3893 11.4918 63.624C11.1184 63.848 10.6918 63.96 10.2118 63.96C9.73175 63.96 9.29975 63.848 8.91575 63.624C8.54242 63.3893 8.24375 63.0747 8.01975 62.68C7.80642 62.2853 7.69975 61.832 7.69975 61.32ZM17.0581 57.64H15.7781V65H17.0581V57.64ZM19.2821 59.048L19.9861 57.992C19.7941 57.7893 19.5808 57.656 19.3461 57.592C19.1221 57.5173 18.8768 57.48 18.6101 57.48C18.2688 57.48 17.9328 57.6133 17.6021 57.88C17.2715 58.1467 16.9995 58.5093 16.7861 58.968C16.5835 59.416 16.4821 59.9333 16.4821 60.52H17.0581C17.0581 60.168 17.0901 59.8533 17.1541 59.576C17.2288 59.2987 17.3568 59.08 17.5381 58.92C17.7195 58.76 17.9701 58.68 18.2901 58.68C18.5035 58.68 18.6795 58.712 18.8181 58.776C18.9568 58.8293 19.1115 58.92 19.2821 59.048ZM20.3881 61.32C20.3881 62.056 20.5535 62.7173 20.8841 63.304C21.2255 63.88 21.6841 64.3333 22.2601 64.664C22.8361 64.9947 23.4815 65.16 24.1961 65.16C24.9215 65.16 25.5668 64.9947 26.1321 64.664C26.7081 64.3333 27.1615 63.88 27.4921 63.304C27.8335 62.7173 28.0041 62.056 28.0041 61.32C28.0041 60.5733 27.8335 59.912 27.4921 59.336C27.1615 58.76 26.7081 58.3067 26.1321 57.976C25.5668 57.6453 24.9215 57.48 24.1961 57.48C23.4815 57.48 22.8361 57.6453 22.2601 57.976C21.6841 58.3067 21.2255 58.76 20.8841 59.336C20.5535 59.912 20.3881 60.5733 20.3881 61.32ZM21.6841 61.32C21.6841 60.808 21.7908 60.3547 22.0041 59.96C22.2281 59.5547 22.5268 59.24 22.9001 59.016C23.2841 58.792 23.7161 58.68 24.1961 58.68C24.6761 58.68 25.1028 58.792 25.4761 59.016C25.8601 59.24 26.1588 59.5547 26.3721 59.96C26.5961 60.3547 26.7081 60.808 26.7081 61.32C26.7081 61.832 26.5961 62.2853 26.3721 62.68C26.1588 63.0747 25.8601 63.3893 25.4761 63.624C25.1028 63.848 24.6761 63.96 24.1961 63.96C23.7161 63.96 23.2841 63.848 22.9001 63.624C22.5268 63.3893 22.2281 63.0747 22.0041 62.68C21.7908 62.2853 21.6841 61.832 21.6841 61.32ZM34.4825 60.52V65H35.7625V60.36C35.7625 59.7627 35.6558 59.2507 35.4425 58.824C35.2398 58.3973 34.9518 58.0667 34.5785 57.832C34.2052 57.5973 33.7572 57.48 33.2345 57.48C32.7545 57.48 32.3278 57.5867 31.9545 57.8C31.5918 58.0133 31.2878 58.344 31.0425 58.792V57.64H29.7625V65H31.0425V60.52C31.0425 60.1573 31.1172 59.8373 31.2665 59.56C31.4265 59.2827 31.6452 59.0693 31.9225 58.92C32.2105 58.76 32.5412 58.68 32.9145 58.68C33.2558 58.68 33.5438 58.7493 33.7785 58.888C34.0132 59.0267 34.1892 59.2347 34.3065 59.512C34.4238 59.7787 34.4825 60.1147 34.4825 60.52ZM37.0488 57.64V58.84H40.7288V57.64H37.0488ZM38.2488 55.08V65H39.5288V55.08H38.2488ZM41.3725 61.32C41.3725 62.056 41.5378 62.7173 41.8685 63.304C42.2098 63.88 42.6685 64.3333 43.2445 64.664C43.8205 64.9947 44.4658 65.16 45.1805 65.16C45.9058 65.16 46.5512 64.9947 47.1165 64.664C47.6925 64.3333 48.1458 63.88 48.4765 63.304C48.8178 62.7173 48.9885 62.056 48.9885 61.32C48.9885 60.5733 48.8178 59.912 48.4765 59.336C48.1458 58.76 47.6925 58.3067 47.1165 57.976C46.5512 57.6453 45.9058 57.48 45.1805 57.48C44.4658 57.48 43.8205 57.6453 43.2445 57.976C42.6685 58.3067 42.2098 58.76 41.8685 59.336C41.5378 59.912 41.3725 60.5733 41.3725 61.32ZM42.6685 61.32C42.6685 60.808 42.7752 60.3547 42.9885 59.96C43.2125 59.5547 43.5112 59.24 43.8845 59.016C44.2685 58.792 44.7005 58.68 45.1805 58.68C45.6605 58.68 46.0872 58.792 46.4605 59.016C46.8445 59.24 47.1432 59.5547 47.3565 59.96C47.5805 60.3547 47.6925 60.808 47.6925 61.32C47.6925 61.832 47.5805 62.2853 47.3565 62.68C47.1432 63.0747 46.8445 63.3893 46.4605 63.624C46.0872 63.848 45.6605 63.96 45.1805 63.96C44.7005 63.96 44.2685 63.848 43.8845 63.624C43.5112 63.3893 43.2125 63.0747 42.9885 62.68C42.7752 62.2853 42.6685 61.832 42.6685 61.32ZM51.118 63.24L49.71 67.384L50.638 67.72L52.398 63.72L51.118 63.24ZM60.5488 59.4C60.5488 58.7707 60.6501 58.1893 60.8528 57.656C61.0661 57.112 61.3648 56.6427 61.7488 56.248C62.1328 55.8533 62.5808 55.5493 63.0928 55.336C63.6154 55.112 64.1808 55 64.7888 55C65.3968 55 65.9568 55.112 66.4688 55.336C66.9914 55.5493 67.4448 55.8533 67.8288 56.248C68.2128 56.6427 68.5061 57.112 68.7088 57.656C68.9221 58.1893 69.0288 58.7707 69.0288 59.4C69.0288 60.0293 68.9221 60.616 68.7088 61.16C68.5061 61.6933 68.2128 62.1573 67.8288 62.552C67.4448 62.9467 66.9914 63.256 66.4688 63.48C65.9568 63.6933 65.3968 63.8 64.7888 63.8C64.1808 63.8 63.6154 63.6933 63.0928 63.48C62.5808 63.256 62.1328 62.9467 61.7488 62.552C61.3648 62.1573 61.0661 61.6933 60.8528 61.16C60.6501 60.616 60.5488 60.0293 60.5488 59.4ZM59.1088 59.4C59.1088 60.2107 59.2474 60.968 59.5247 61.672C59.8128 62.376 60.2128 62.9893 60.7248 63.512C61.2368 64.024 61.8394 64.4293 62.5328 64.728C63.2261 65.016 63.9781 65.16 64.7888 65.16C65.6101 65.16 66.3621 65.016 67.0448 64.728C67.7381 64.4293 68.3408 64.024 68.8528 63.512C69.3648 62.9893 69.7594 62.376 70.0368 61.672C70.3248 60.968 70.4688 60.2107 70.4688 59.4C70.4688 58.5787 70.3248 57.8213 70.0368 57.128C69.7594 56.424 69.3648 55.816 68.8528 55.304C68.3408 54.7813 67.7381 54.376 67.0448 54.088C66.3621 53.7893 65.6101 53.64 64.7888 53.64C63.9781 53.64 63.2261 53.7893 62.5328 54.088C61.8394 54.376 61.2368 54.7813 60.7248 55.304C60.2128 55.816 59.8128 56.424 59.5247 57.128C59.2474 57.8213 59.1088 58.5787 59.1088 59.4ZM77.0294 60.52V65H78.3094V60.36C78.3094 59.7627 78.2027 59.2507 77.9894 58.824C77.7867 58.3973 77.4987 58.0667 77.1254 57.832C76.752 57.5973 76.304 57.48 75.7814 57.48C75.3014 57.48 74.8747 57.5867 74.5014 57.8C74.1387 58.0133 73.8347 58.344 73.5894 58.792V57.64H72.3094V65H73.5894V60.52C73.5894 60.1573 73.664 59.8373 73.8134 59.56C73.9734 59.2827 74.192 59.0693 74.4694 58.92C74.7574 58.76 75.088 58.68 75.4614 58.68C75.8027 58.68 76.0907 58.7493 76.3254 58.888C76.56 59.0267 76.736 59.2347 76.8534 59.512C76.9707 59.7787 77.0294 60.1147 77.0294 60.52ZM79.5956 57.64V58.84H83.2756V57.64H79.5956ZM80.7956 55.08V65H82.0756V55.08H80.7956ZM85.1354 62.728C85.1354 62.4613 85.1994 62.232 85.3274 62.04C85.4554 61.848 85.6474 61.6987 85.9034 61.592C86.17 61.4853 86.5114 61.432 86.9274 61.432C87.3754 61.432 87.7967 61.4907 88.1914 61.608C88.586 61.7147 88.97 61.896 89.3434 62.152V61.4C89.2687 61.304 89.1247 61.1813 88.9114 61.032C88.698 60.872 88.41 60.7333 88.0474 60.616C87.6954 60.488 87.2527 60.424 86.7194 60.424C86.122 60.424 85.6047 60.5253 85.1674 60.728C84.7407 60.92 84.41 61.192 84.1754 61.544C83.9514 61.896 83.8394 62.312 83.8394 62.792C83.8394 63.2933 83.9567 63.72 84.1914 64.072C84.426 64.424 84.7354 64.696 85.1194 64.888C85.514 65.0693 85.9354 65.16 86.3834 65.16C86.7887 65.16 87.194 65.0853 87.5994 64.936C88.0154 64.7867 88.362 64.5573 88.6394 64.248C88.9274 63.9387 89.0714 63.5493 89.0714 63.08L88.8154 62.12C88.8154 62.504 88.7194 62.8453 88.5274 63.144C88.346 63.432 88.0954 63.656 87.7754 63.816C87.466 63.976 87.114 64.056 86.7194 64.056C86.41 64.056 86.1327 64.008 85.8874 63.912C85.6527 63.8053 85.466 63.6507 85.3274 63.448C85.1994 63.2453 85.1354 63.0053 85.1354 62.728ZM84.9434 59.336C85.0607 59.2507 85.2207 59.1493 85.4234 59.032C85.626 58.9147 85.8714 58.8133 86.1594 58.728C86.458 58.6427 86.7887 58.6 87.1514 58.6C87.3754 58.6 87.5887 58.6213 87.7914 58.664C87.994 58.7067 88.17 58.776 88.3194 58.872C88.4794 58.968 88.602 59.1013 88.6874 59.272C88.7727 59.432 88.8154 59.64 88.8154 59.896V65H90.0954V59.72C90.0954 59.24 89.9727 58.8347 89.7274 58.504C89.4927 58.1733 89.1567 57.9227 88.7194 57.752C88.2927 57.5707 87.7914 57.48 87.2154 57.48C86.5327 57.48 85.946 57.5813 85.4554 57.784C84.9754 57.9867 84.5967 58.1893 84.3194 58.392L84.9434 59.336ZM93.5425 57.64H92.2625V65H93.5425V57.64ZM95.7665 59.048L96.4705 57.992C96.2785 57.7893 96.0652 57.656 95.8305 57.592C95.6065 57.5173 95.3612 57.48 95.0945 57.48C94.7532 57.48 94.4172 57.6133 94.0865 57.88C93.7558 58.1467 93.4838 58.5093 93.2705 58.968C93.0678 59.416 92.9665 59.9333 92.9665 60.52H93.5425C93.5425 60.168 93.5745 59.8533 93.6385 59.576C93.7132 59.2987 93.8412 59.08 94.0225 58.92C94.2038 58.76 94.4545 58.68 94.7745 58.68C94.9878 58.68 95.1638 58.712 95.3025 58.776C95.4412 58.8293 95.5958 58.92 95.7665 59.048ZM97.7469 54.6C97.7469 54.8347 97.8322 55.0427 98.0029 55.224C98.1842 55.3947 98.3922 55.48 98.6269 55.48C98.8722 55.48 99.0802 55.3947 99.2509 55.224C99.4215 55.0427 99.5069 54.8347 99.5069 54.6C99.5069 54.3547 99.4215 54.1467 99.2509 53.976C99.0802 53.8053 98.8722 53.72 98.6269 53.72C98.3922 53.72 98.1842 53.8053 98.0029 53.976C97.8322 54.1467 97.7469 54.3547 97.7469 54.6ZM97.9869 57.64V65H99.2669V57.64H97.9869ZM101.263 61.32C101.263 62.056 101.428 62.7173 101.759 63.304C102.1 63.88 102.559 64.3333 103.135 64.664C103.711 64.9947 104.356 65.16 105.071 65.16C105.796 65.16 106.442 64.9947 107.007 64.664C107.583 64.3333 108.036 63.88 108.367 63.304C108.708 62.7173 108.879 62.056 108.879 61.32C108.879 60.5733 108.708 59.912 108.367 59.336C108.036 58.76 107.583 58.3067 107.007 57.976C106.442 57.6453 105.796 57.48 105.071 57.48C104.356 57.48 103.711 57.6453 103.135 57.976C102.559 58.3067 102.1 58.76 101.759 59.336C101.428 59.912 101.263 60.5733 101.263 61.32ZM102.559 61.32C102.559 60.808 102.666 60.3547 102.879 59.96C103.103 59.5547 103.402 59.24 103.775 59.016C104.159 58.792 104.591 58.68 105.071 58.68C105.551 58.68 105.978 58.792 106.351 59.016C106.735 59.24 107.034 59.5547 107.247 59.96C107.471 60.3547 107.583 60.808 107.583 61.32C107.583 61.832 107.471 62.2853 107.247 62.68C107.034 63.0747 106.735 63.3893 106.351 63.624C105.978 63.848 105.551 63.96 105.071 63.96C104.591 63.96 104.159 63.848 103.775 63.624C103.402 63.3893 103.103 63.0747 102.879 62.68C102.666 62.2853 102.559 61.832 102.559 61.32ZM117.066 57.432L120.714 63.96L124.362 57.432L125.194 65H126.554L125.194 53.24L120.714 61.352L116.234 53.24L114.874 65H116.234L117.066 57.432ZM134.308 57.48C134.308 57.992 134.196 58.4453 133.972 58.84C133.758 59.2347 133.46 59.5493 133.076 59.784C132.702 60.008 132.276 60.12 131.796 60.12C131.316 60.12 130.884 60.008 130.5 59.784C130.126 59.5493 129.828 59.2347 129.604 58.84C129.39 58.4453 129.284 57.992 129.284 57.48C129.284 56.968 129.39 56.52 129.604 56.136C129.828 55.7413 130.126 55.432 130.5 55.208C130.884 54.984 131.316 54.872 131.796 54.872C132.276 54.872 132.702 54.984 133.076 55.208C133.46 55.432 133.758 55.7413 133.972 56.136C134.196 56.52 134.308 56.968 134.308 57.48ZM131.124 65L134.9 59.8C135.113 59.5013 135.284 59.1547 135.411 58.76C135.54 58.3653 135.604 57.9387 135.604 57.48C135.604 56.712 135.433 56.04 135.092 55.464C134.761 54.888 134.308 54.44 133.732 54.12C133.166 53.8 132.521 53.64 131.796 53.64C131.081 53.64 130.436 53.8 129.86 54.12C129.284 54.44 128.825 54.888 128.484 55.464C128.153 56.04 127.988 56.712 127.988 57.48C127.988 57.992 128.073 58.472 128.243 58.92C128.414 59.3573 128.649 59.7413 128.948 60.072C129.257 60.4027 129.609 60.6587 130.004 60.84C130.409 61.0213 130.841 61.112 131.299 61.112C131.662 61.112 131.982 61.0693 132.26 60.984C132.548 60.8987 132.798 60.7227 133.012 60.456L132.916 60.376L129.412 65H131.124ZM138.486 59.4C138.486 58.7493 138.598 58.1573 138.822 57.624C139.046 57.08 139.35 56.616 139.734 56.232C140.129 55.8373 140.572 55.5333 141.062 55.32C141.564 55.1067 142.092 55 142.646 55C143.18 55 143.665 55.0693 144.102 55.208C144.55 55.3467 144.956 55.544 145.318 55.8C145.681 56.0453 145.99 56.3333 146.246 56.664V54.872C145.777 54.456 145.265 54.1467 144.71 53.944C144.156 53.7413 143.468 53.64 142.646 53.64C141.868 53.64 141.137 53.784 140.454 54.072C139.782 54.3493 139.19 54.7493 138.678 55.272C138.166 55.784 137.766 56.392 137.478 57.096C137.19 57.8 137.046 58.568 137.046 59.4C137.046 60.232 137.19 61 137.478 61.704C137.766 62.408 138.166 63.0213 138.678 63.544C139.19 64.056 139.782 64.456 140.454 64.744C141.137 65.0213 141.868 65.16 142.646 65.16C143.468 65.16 144.156 65.0587 144.71 64.856C145.265 64.6533 145.777 64.344 146.246 63.928V62.136C145.99 62.4667 145.681 62.76 145.318 63.016C144.956 63.2613 144.55 63.4533 144.102 63.592C143.665 63.7307 143.18 63.8 142.646 63.8C142.092 63.8 141.564 63.6933 141.062 63.48C140.572 63.2667 140.129 62.968 139.734 62.584C139.35 62.1893 139.046 61.7253 138.822 61.192C138.598 60.648 138.486 60.0507 138.486 59.4ZM156.204 59.48C156.748 59.48 157.239 59.4053 157.676 59.256C158.124 59.1067 158.508 58.904 158.828 58.648C159.159 58.3813 159.41 58.0773 159.58 57.736C159.762 57.384 159.852 57.0107 159.852 56.616C159.852 56.0827 159.724 55.592 159.468 55.144C159.223 54.696 158.866 54.3333 158.396 54.056C157.938 53.7787 157.388 53.64 156.748 53.64C156.14 53.64 155.596 53.768 155.116 54.024C154.647 54.2693 154.274 54.6107 153.996 55.048C153.73 55.4853 153.596 55.9973 153.596 56.584H154.892C154.892 56.2533 154.972 55.96 155.132 55.704C155.303 55.448 155.527 55.2453 155.804 55.096C156.092 54.9467 156.412 54.872 156.764 54.872C157.138 54.872 157.447 54.9467 157.692 55.096C157.948 55.2453 158.14 55.4587 158.268 55.736C158.396 56.0027 158.46 56.312 158.46 56.664C158.46 56.9307 158.407 57.1813 158.3 57.416C158.204 57.6507 158.06 57.8587 157.868 58.04C157.676 58.2107 157.442 58.3493 157.164 58.456C156.887 58.552 156.567 58.6 156.204 58.6V59.48ZM156.684 65.16C157.356 65.16 157.954 65.032 158.476 64.776C158.999 64.52 159.41 64.1573 159.708 63.688C160.018 63.2187 160.172 62.6693 160.172 62.04C160.172 61.4853 160.066 61.0107 159.852 60.616C159.65 60.2213 159.362 59.9013 158.988 59.656C158.626 59.4 158.204 59.2133 157.724 59.096C157.255 58.9787 156.748 58.92 156.204 58.92V59.8C156.567 59.8 156.903 59.8427 157.212 59.928C157.522 60.0133 157.794 60.1467 158.028 60.328C158.263 60.4987 158.444 60.7173 158.572 60.984C158.711 61.24 158.78 61.5387 158.78 61.88C158.78 62.2853 158.695 62.6373 158.524 62.936C158.354 63.2347 158.108 63.4693 157.788 63.64C157.479 63.8 157.111 63.88 156.684 63.88C156.258 63.88 155.879 63.8 155.548 63.64C155.218 63.48 154.956 63.2613 154.764 62.984C154.583 62.7067 154.492 62.392 154.492 62.04H153.116C153.116 62.4773 153.202 62.888 153.372 63.272C153.543 63.6453 153.783 63.976 154.092 64.264C154.402 64.5413 154.775 64.76 155.212 64.92C155.65 65.08 156.14 65.16 156.684 65.16ZM159.819 66.664L159.115 67.72C159.2 67.8267 159.339 67.9387 159.531 68.056C159.712 68.184 159.936 68.2907 160.203 68.376C160.459 68.472 160.725 68.52 161.003 68.52C161.376 68.52 161.712 68.4667 162.011 68.36C162.32 68.264 162.581 68.1093 162.795 67.896C163.008 67.6827 163.168 67.416 163.275 67.096C163.392 66.776 163.451 66.3973 163.451 65.96V53.8H162.171V65.8C162.171 66.3227 162.048 66.6907 161.803 66.904C161.568 67.128 161.328 67.24 161.083 67.24C160.795 67.24 160.544 67.1867 160.331 67.08C160.107 66.984 159.936 66.8453 159.819 66.664ZM173.118 61.32C173.118 60.5733 172.974 59.9173 172.686 59.352C172.398 58.7867 171.998 58.344 171.486 58.024C170.985 57.704 170.414 57.544 169.774 57.544C169.497 57.544 169.214 57.5813 168.926 57.656C168.649 57.72 168.377 57.8213 168.11 57.96L168.862 55H173.086V53.8H167.806L166.334 59.768C166.718 59.5013 167.054 59.2987 167.342 59.16C167.641 59.0107 167.934 58.9093 168.222 58.856C168.521 58.792 168.846 58.76 169.198 58.76C169.678 58.76 170.105 58.8667 170.478 59.08C170.862 59.2933 171.161 59.592 171.374 59.976C171.598 60.36 171.71 60.808 171.71 61.32C171.71 61.832 171.609 62.28 171.406 62.664C171.214 63.048 170.932 63.3467 170.558 63.56C170.185 63.7733 169.732 63.88 169.198 63.88C168.793 63.88 168.404 63.7947 168.03 63.624C167.657 63.4427 167.326 63.2133 167.038 62.936C166.761 62.648 166.537 62.344 166.366 62.024L165.214 62.808C165.46 63.2347 165.758 63.6293 166.11 63.992C166.473 64.344 166.905 64.6267 167.406 64.84C167.918 65.0533 168.516 65.16 169.198 65.16C169.742 65.16 170.249 65.08 170.718 64.92C171.188 64.76 171.604 64.52 171.966 64.2C172.329 63.88 172.612 63.48 172.814 63C173.017 62.52 173.118 61.96 173.118 61.32Z" fill="white"/>
</svg>
